<?xml version="1.0" encoding="UTF-8"?>
<!DOCTYPE svg PUBLIC "-//W3C//DTD SVG 1.1//EN"
    "http://www.w3.org/Graphics/SVG/1.1/DTD/svg11.dtd"><svg xmlns="http://www.w3.org/2000/svg" height="325.4438" stroke-opacity="1" viewBox="0 0 1000 325" font-size="1" width="1000.0000" xmlns:xlink="http://www.w3.org/1999/xlink" stroke="rgb(0,0,0)" version="1.1"><defs></defs><defs></defs><g stroke-linejoin="miter" stroke-opacity="1.0" fill-opacity="1.0" font-size="14.792899408284025px" stroke="rgb(0,0,0)" stroke-width="2.281907226798666" fill="rgb(0,0,0)" stroke-linecap="butt" stroke-miterlimit="10.0"><text dominant-baseline="middle" transform="matrix(1.0000,0.0000,0.0000,1.0000,911.2426,73.9645)" stroke="none" text-anchor="middle">b[3]</text></g><defs></defs><g stroke-linejoin="miter" stroke-opacity="1.0" fill-opacity="1.0" font-size="14.792899408284025px" stroke="rgb(0,0,0)" stroke-width="2.281907226798666" fill="rgb(0,0,0)" stroke-linecap="butt" stroke-miterlimit="10.0"><text dominant-baseline="middle" transform="matrix(1.0000,0.0000,0.0000,1.0000,911.2426,103.5503)" stroke="none" text-anchor="middle">b[2]</text></g><defs></defs><g stroke-linejoin="miter" stroke-opacity="1.0" fill-opacity="1.0" font-size="14.792899408284025px" stroke="rgb(0,0,0)" stroke-width="2.281907226798666" fill="rgb(0,0,0)" stroke-linecap="butt" stroke-miterlimit="10.0"><text dominant-baseline="middle" transform="matrix(1.0000,0.0000,0.0000,1.0000,911.2426,133.1361)" stroke="none" text-anchor="middle">b[1]</text></g><defs></defs><g stroke-linejoin="miter" stroke-opacity="1.0" fill-opacity="1.0" font-size="14.792899408284025px" stroke="rgb(0,0,0)" stroke-width="2.281907226798666" fill="rgb(0,0,0)" stroke-linecap="butt" stroke-miterlimit="10.0"><text dominant-baseline="middle" transform="matrix(1.0000,0.0000,0.0000,1.0000,911.2426,162.7219)" stroke="none" text-anchor="middle">b[0]</text></g><defs></defs><g stroke-linejoin="miter" stroke-opacity="1.0" fill-opacity="1.0" font-size="14.792899408284025px" stroke="rgb(0,0,0)" stroke-width="2.281907226798666" fill="rgb(0,0,0)" stroke-linecap="butt" stroke-miterlimit="10.0"><text dominant-baseline="middle" transform="matrix(1.0000,0.0000,0.0000,1.0000,911.2426,192.3077)" stroke="none" text-anchor="middle">a[3]</text></g><defs></defs><g stroke-linejoin="miter" stroke-opacity="1.0" fill-opacity="1.0" font-size="14.792899408284025px" stroke="rgb(0,0,0)" stroke-width="2.281907226798666" fill="rgb(0,0,0)" stroke-linecap="butt" stroke-miterlimit="10.0"><text dominant-baseline="middle" transform="matrix(1.0000,0.0000,0.0000,1.0000,911.2426,221.8935)" stroke="none" text-anchor="middle">a[2]</text></g><defs></defs><g stroke-linejoin="miter" stroke-opacity="1.0" fill-opacity="1.0" font-size="14.792899408284025px" stroke="rgb(0,0,0)" stroke-width="2.281907226798666" fill="rgb(0,0,0)" stroke-linecap="butt" stroke-miterlimit="10.0"><text dominant-baseline="middle" transform="matrix(1.0000,0.0000,0.0000,1.0000,911.2426,251.4793)" stroke="none" text-anchor="middle">a[1]</text></g><defs></defs><g stroke-linejoin="miter" stroke-opacity="1.0" fill-opacity="1.0" font-size="14.792899408284025px" stroke="rgb(0,0,0)" stroke-width="2.281907226798666" fill="rgb(0,0,0)" stroke-linecap="butt" stroke-miterlimit="10.0"><text dominant-baseline="middle" transform="matrix(1.0000,0.0000,0.0000,1.0000,911.2426,281.0651)" stroke="none" text-anchor="middle">a[0]</text></g><defs></defs><g stroke-linejoin="miter" stroke-opacity="1.0" fill-opacity="0.0" stroke="rgb(128,128,128)" stroke-width="1.140953613399333" fill="rgb(0,0,0)" stroke-linecap="butt" stroke-miterlimit="10.0"><path d="M 147.9290,44.3787 h 704.1420 "/></g><defs></defs><g stroke-linejoin="miter" stroke-opacity="1.0" fill-opacity="0.0" stroke="rgb(128,128,128)" stroke-width="1.140953613399333" fill="rgb(0,0,0)" stroke-linecap="butt" stroke-miterlimit="10.0"><path d="M 147.9290,73.9645 h 704.1420 "/></g><defs></defs><g stroke-linejoin="miter" stroke-opacity="1.0" fill-opacity="0.0" stroke="rgb(128,128,128)" stroke-width="1.140953613399333" fill="rgb(0,0,0)" stroke-linecap="butt" stroke-miterlimit="10.0"><path d="M 147.9290,103.5503 h 704.1420 "/></g><defs></defs><g stroke-linejoin="miter" stroke-opacity="1.0" fill-opacity="0.0" stroke="rgb(128,128,128)" stroke-width="1.140953613399333" fill="rgb(0,0,0)" stroke-linecap="butt" stroke-miterlimit="10.0"><path d="M 147.9290,133.1361 h 704.1420 "/></g><defs></defs><g stroke-linejoin="miter" stroke-opacity="1.0" fill-opacity="0.0" stroke="rgb(128,128,128)" stroke-width="1.140953613399333" fill="rgb(0,0,0)" stroke-linecap="butt" stroke-miterlimit="10.0"><path d="M 147.9290,162.7219 h 704.1420 "/></g><defs></defs><g stroke-linejoin="miter" stroke-opacity="1.0" fill-opacity="0.0" stroke="rgb(128,128,128)" stroke-width="1.140953613399333" fill="rgb(0,0,0)" stroke-linecap="butt" stroke-miterlimit="10.0"><path d="M 147.9290,192.3077 h 704.1420 "/></g><defs></defs><g stroke-linejoin="miter" stroke-opacity="1.0" fill-opacity="0.0" stroke="rgb(128,128,128)" stroke-width="1.140953613399333" fill="rgb(0,0,0)" stroke-linecap="butt" stroke-miterlimit="10.0"><path d="M 147.9290,221.8935 h 704.1420 "/></g><defs></defs><g stroke-linejoin="miter" stroke-opacity="1.0" fill-opacity="0.0" stroke="rgb(128,128,128)" stroke-width="1.140953613399333" fill="rgb(0,0,0)" stroke-linecap="butt" stroke-miterlimit="10.0"><path d="M 147.9290,251.4793 h 704.1420 "/></g><defs></defs><g stroke-linejoin="miter" stroke-opacity="1.0" fill-opacity="0.0" stroke="rgb(128,128,128)" stroke-width="1.140953613399333" fill="rgb(0,0,0)" stroke-linecap="butt" stroke-miterlimit="10.0"><path d="M 147.9290,281.0651 h 704.1420 "/></g><defs></defs><g stroke-linejoin="miter" stroke-opacity="1.0" fill-opacity="0.0" stroke="rgb(0,0,0)" stroke-width="1.140953613399333" fill="rgb(0,0,0)" stroke-linecap="butt" stroke-miterlimit="10.0"><path d="M 837.2781,295.8580 v -251.4793 "/></g><defs></defs><g stroke-linejoin="miter" stroke-opacity="1.0" fill-opacity="1.0" stroke="rgb(0,0,0)" stroke-width="2.281907226798666" fill="rgb(0,0,0)" stroke-linecap="butt" stroke-miterlimit="10.0"><path d="M 843.1953,44.3787 c 0.0000,-3.2680 -2.6492,-5.9172 -5.9172 -5.9172c -3.2680,-0.0000 -5.9172,2.6492 -5.9172 5.9172c -0.0000,3.2680 2.6492,5.9172 5.9172 5.9172c 3.2680,0.0000 5.9172,-2.6492 5.9172 -5.9172Z"/></g><defs></defs><g stroke-linejoin="miter" stroke-opacity="1.0" fill-opacity="0.0" stroke="rgb(0,0,0)" stroke-width="1.140953613399333" fill="rgb(0,0,0)" stroke-linecap="butt" stroke-miterlimit="10.0"><path d="M 852.0710,281.0651 c 0.0000,-8.1699 -6.6230,-14.7929 -14.7929 -14.7929c -8.1699,-0.0000 -14.7929,6.6230 -14.7929 14.7929c -0.0000,8.1699 6.6230,14.7929 14.7929 14.7929c 8.1699,0.0000 14.7929,-6.6230 14.7929 -14.7929Z"/></g><defs></defs><g stroke-linejoin="miter" stroke-opacity="1.0" fill-opacity="0.0" stroke="rgb(0,0,0)" stroke-width="1.140953613399333" fill="rgb(0,0,0)" stroke-linecap="butt" stroke-miterlimit="10.0"><path d="M 801.7751,162.7219 v -133.1361 "/></g><defs></defs><g stroke-linejoin="miter" stroke-opacity="1.0" fill-opacity="1.0" stroke="rgb(0,0,0)" stroke-width="2.281907226798666" fill="rgb(0,0,0)" stroke-linecap="butt" stroke-miterlimit="10.0"><path d="M 807.6923,162.7219 c 0.0000,-3.2680 -2.6492,-5.9172 -5.9172 -5.9172c -3.2680,-0.0000 -5.9172,2.6492 -5.9172 5.9172c -0.0000,3.2680 2.6492,5.9172 5.9172 5.9172c 3.2680,0.0000 5.9172,-2.6492 5.9172 -5.9172Z"/></g><defs></defs><g stroke-linejoin="miter" stroke-opacity="1.0" fill-opacity="0.0" stroke="rgb(0,0,0)" stroke-width="1.140953613399333" fill="rgb(0,0,0)" stroke-linecap="butt" stroke-miterlimit="10.0"><path d="M 816.5680,44.3787 c 0.0000,-8.1699 -6.6230,-14.7929 -14.7929 -14.7929c -8.1699,-0.0000 -14.7929,6.6230 -14.7929 14.7929c -0.0000,8.1699 6.6230,14.7929 14.7929 14.7929c 8.1699,0.0000 14.7929,-6.6230 14.7929 -14.7929Z"/></g><defs></defs><g stroke-linejoin="miter" stroke-opacity="1.0" fill-opacity="0.0" stroke="rgb(0,0,0)" stroke-width="1.140953613399333" fill="rgb(0,0,0)" stroke-linecap="butt" stroke-miterlimit="10.0"><path d="M 766.2722,281.0651 v -236.6864 "/></g><defs></defs><g stroke-linejoin="miter" stroke-opacity="1.0" fill-opacity="1.0" stroke="rgb(0,0,0)" stroke-width="2.281907226798666" fill="rgb(0,0,0)" stroke-linecap="butt" stroke-miterlimit="10.0"><path d="M 772.1893,281.0651 c 0.0000,-3.2680 -2.6492,-5.9172 -5.9172 -5.9172c -3.2680,-0.0000 -5.9172,2.6492 -5.9172 5.9172c -0.0000,3.2680 2.6492,5.9172 5.9172 5.9172c 3.2680,0.0000 5.9172,-2.6492 5.9172 -5.9172Z"/></g><defs></defs><g stroke-linejoin="miter" stroke-opacity="1.0" fill-opacity="1.0" stroke="rgb(0,0,0)" stroke-width="2.281907226798666" fill="rgb(0,0,0)" stroke-linecap="butt" stroke-miterlimit="10.0"><path d="M 772.1893,44.3787 c 0.0000,-3.2680 -2.6492,-5.9172 -5.9172 -5.9172c -3.2680,-0.0000 -5.9172,2.6492 -5.9172 5.9172c -0.0000,3.2680 2.6492,5.9172 5.9172 5.9172c 3.2680,0.0000 5.9172,-2.6492 5.9172 -5.9172Z"/></g><defs></defs><g stroke-linejoin="miter" stroke-opacity="1.0" fill-opacity="0.0" stroke="rgb(0,0,0)" stroke-width="1.140953613399333" fill="rgb(0,0,0)" stroke-linecap="butt" stroke-miterlimit="10.0"><path d="M 781.0651,162.7219 c 0.0000,-8.1699 -6.6230,-14.7929 -14.7929 -14.7929c -8.1699,-0.0000 -14.7929,6.6230 -14.7929 14.7929c -0.0000,8.1699 6.6230,14.7929 14.7929 14.7929c 8.1699,0.0000 14.7929,-6.6230 14.7929 -14.7929Z"/></g><defs></defs><g stroke-linejoin="miter" stroke-opacity="1.0" fill-opacity="0.0" stroke="rgb(0,0,0)" stroke-width="1.140953613399333" fill="rgb(0,0,0)" stroke-linecap="butt" stroke-miterlimit="10.0"><path d="M 730.7692,266.2722 v -103.5503 "/></g><defs></defs><g stroke-linejoin="miter" stroke-opacity="1.0" fill-opacity="1.0" stroke="rgb(0,0,0)" stroke-width="2.281907226798666" fill="rgb(0,0,0)" stroke-linecap="butt" stroke-miterlimit="10.0"><path d="M 736.6864,162.7219 c 0.0000,-3.2680 -2.6492,-5.9172 -5.9172 -5.9172c -3.2680,-0.0000 -5.9172,2.6492 -5.9172 5.9172c -0.0000,3.2680 2.6492,5.9172 5.9172 5.9172c 3.2680,0.0000 5.9172,-2.6492 5.9172 -5.9172Z"/></g><defs></defs><g stroke-linejoin="miter" stroke-opacity="1.0" fill-opacity="0.0" stroke="rgb(0,0,0)" stroke-width="1.140953613399333" fill="rgb(0,0,0)" stroke-linecap="butt" stroke-miterlimit="10.0"><path d="M 745.5621,251.4793 c 0.0000,-8.1699 -6.6230,-14.7929 -14.7929 -14.7929c -8.1699,-0.0000 -14.7929,6.6230 -14.7929 14.7929c -0.0000,8.1699 6.6230,14.7929 14.7929 14.7929c 8.1699,0.0000 14.7929,-6.6230 14.7929 -14.7929Z"/></g><defs></defs><g stroke-linejoin="miter" stroke-opacity="1.0" fill-opacity="0.0" stroke="rgb(0,0,0)" stroke-width="1.140953613399333" fill="rgb(0,0,0)" stroke-linecap="butt" stroke-miterlimit="10.0"><path d="M 695.2663,177.5148 v -44.3787 "/></g><defs></defs><g stroke-linejoin="miter" stroke-opacity="1.0" fill-opacity="1.0" stroke="rgb(0,0,0)" stroke-width="2.281907226798666" fill="rgb(0,0,0)" stroke-linecap="butt" stroke-miterlimit="10.0"><path d="M 701.1834,133.1361 c 0.0000,-3.2680 -2.6492,-5.9172 -5.9172 -5.9172c -3.2680,-0.0000 -5.9172,2.6492 -5.9172 5.9172c -0.0000,3.2680 2.6492,5.9172 5.9172 5.9172c 3.2680,0.0000 5.9172,-2.6492 5.9172 -5.9172Z"/></g><defs></defs><g stroke-linejoin="miter" stroke-opacity="1.0" fill-opacity="0.0" stroke="rgb(0,0,0)" stroke-width="1.140953613399333" fill="rgb(0,0,0)" stroke-linecap="butt" stroke-miterlimit="10.0"><path d="M 710.0592,162.7219 c 0.0000,-8.1699 -6.6230,-14.7929 -14.7929 -14.7929c -8.1699,-0.0000 -14.7929,6.6230 -14.7929 14.7929c -0.0000,8.1699 6.6230,14.7929 14.7929 14.7929c 8.1699,0.0000 14.7929,-6.6230 14.7929 -14.7929Z"/></g><defs></defs><g stroke-linejoin="miter" stroke-opacity="1.0" fill-opacity="0.0" stroke="rgb(0,0,0)" stroke-width="1.140953613399333" fill="rgb(0,0,0)" stroke-linecap="butt" stroke-miterlimit="10.0"><path d="M 659.7633,251.4793 v -133.1361 "/></g><defs></defs><g stroke-linejoin="miter" stroke-opacity="1.0" fill-opacity="1.0" stroke="rgb(0,0,0)" stroke-width="2.281907226798666" fill="rgb(0,0,0)" stroke-linecap="butt" stroke-miterlimit="10.0"><path d="M 665.6805,251.4793 c 0.0000,-3.2680 -2.6492,-5.9172 -5.9172 -5.9172c -3.2680,-0.0000 -5.9172,2.6492 -5.9172 5.9172c -0.0000,3.2680 2.6492,5.9172 5.9172 5.9172c 3.2680,0.0000 5.9172,-2.6492 5.9172 -5.9172Z"/></g><defs></defs><g stroke-linejoin="miter" stroke-opacity="1.0" fill-opacity="1.0" stroke="rgb(0,0,0)" stroke-width="2.281907226798666" fill="rgb(0,0,0)" stroke-linecap="butt" stroke-miterlimit="10.0"><path d="M 665.6805,162.7219 c 0.0000,-3.2680 -2.6492,-5.9172 -5.9172 -5.9172c -3.2680,-0.0000 -5.9172,2.6492 -5.9172 5.9172c -0.0000,3.2680 2.6492,5.9172 5.9172 5.9172c 3.2680,0.0000 5.9172,-2.6492 5.9172 -5.9172Z"/></g><defs></defs><g stroke-linejoin="miter" stroke-opacity="1.0" fill-opacity="0.0" stroke="rgb(0,0,0)" stroke-width="1.140953613399333" fill="rgb(0,0,0)" stroke-linecap="butt" stroke-miterlimit="10.0"><path d="M 674.5562,133.1361 c 0.0000,-8.1699 -6.6230,-14.7929 -14.7929 -14.7929c -8.1699,-0.0000 -14.7929,6.6230 -14.7929 14.7929c -0.0000,8.1699 6.6230,14.7929 14.7929 14.7929c 8.1699,0.0000 14.7929,-6.6230 14.7929 -14.7929Z"/></g><defs></defs><g stroke-linejoin="miter" stroke-opacity="1.0" fill-opacity="0.0" stroke="rgb(0,0,0)" stroke-width="1.140953613399333" fill="rgb(0,0,0)" stroke-linecap="butt" stroke-miterlimit="10.0"><path d="M 624.2604,236.6864 v -103.5503 "/></g><defs></defs><g stroke-linejoin="miter" stroke-opacity="1.0" fill-opacity="1.0" stroke="rgb(0,0,0)" stroke-width="2.281907226798666" fill="rgb(0,0,0)" stroke-linecap="butt" stroke-miterlimit="10.0"><path d="M 630.1775,133.1361 c 0.0000,-3.2680 -2.6492,-5.9172 -5.9172 -5.9172c -3.2680,-0.0000 -5.9172,2.6492 -5.9172 5.9172c -0.0000,3.2680 2.6492,5.9172 5.9172 5.9172c 3.2680,0.0000 5.9172,-2.6492 5.9172 -5.9172Z"/></g><defs></defs><g stroke-linejoin="miter" stroke-opacity="1.0" fill-opacity="0.0" stroke="rgb(0,0,0)" stroke-width="1.140953613399333" fill="rgb(0,0,0)" stroke-linecap="butt" stroke-miterlimit="10.0"><path d="M 639.0533,221.8935 c 0.0000,-8.1699 -6.6230,-14.7929 -14.7929 -14.7929c -8.1699,-0.0000 -14.7929,6.6230 -14.7929 14.7929c -0.0000,8.1699 6.6230,14.7929 14.7929 14.7929c 8.1699,0.0000 14.7929,-6.6230 14.7929 -14.7929Z"/></g><defs></defs><g stroke-linejoin="miter" stroke-opacity="1.0" fill-opacity="0.0" stroke="rgb(0,0,0)" stroke-width="1.140953613399333" fill="rgb(0,0,0)" stroke-linecap="butt" stroke-miterlimit="10.0"><path d="M 588.7574,147.9290 v -44.3787 "/></g><defs></defs><g stroke-linejoin="miter" stroke-opacity="1.0" fill-opacity="1.0" stroke="rgb(0,0,0)" stroke-width="2.281907226798666" fill="rgb(0,0,0)" stroke-linecap="butt" stroke-miterlimit="10.0"><path d="M 594.6746,103.5503 c 0.0000,-3.2680 -2.6492,-5.9172 -5.9172 -5.9172c -3.2680,-0.0000 -5.9172,2.6492 -5.9172 5.9172c -0.0000,3.2680 2.6492,5.9172 5.9172 5.9172c 3.2680,0.0000 5.9172,-2.6492 5.9172 -5.9172Z"/></g><defs></defs><g stroke-linejoin="miter" stroke-opacity="1.0" fill-opacity="0.0" stroke="rgb(0,0,0)" stroke-width="1.140953613399333" fill="rgb(0,0,0)" stroke-linecap="butt" stroke-miterlimit="10.0"><path d="M 603.5503,133.1361 c 0.0000,-8.1699 -6.6230,-14.7929 -14.7929 -14.7929c -8.1699,-0.0000 -14.7929,6.6230 -14.7929 14.7929c -0.0000,8.1699 6.6230,14.7929 14.7929 14.7929c 8.1699,0.0000 14.7929,-6.6230 14.7929 -14.7929Z"/></g><defs></defs><g stroke-linejoin="miter" stroke-opacity="1.0" fill-opacity="0.0" stroke="rgb(0,0,0)" stroke-width="1.140953613399333" fill="rgb(0,0,0)" stroke-linecap="butt" stroke-miterlimit="10.0"><path d="M 553.2544,221.8935 v -133.1361 "/></g><defs></defs><g stroke-linejoin="miter" stroke-opacity="1.0" fill-opacity="1.0" stroke="rgb(0,0,0)" stroke-width="2.281907226798666" fill="rgb(0,0,0)" stroke-linecap="butt" stroke-miterlimit="10.0"><path d="M 559.1716,221.8935 c 0.0000,-3.2680 -2.6492,-5.9172 -5.9172 -5.9172c -3.2680,-0.0000 -5.9172,2.6492 -5.9172 5.9172c -0.0000,3.2680 2.6492,5.9172 5.9172 5.9172c 3.2680,0.0000 5.9172,-2.6492 5.9172 -5.9172Z"/></g><defs></defs><g stroke-linejoin="miter" stroke-opacity="1.0" fill-opacity="1.0" stroke="rgb(0,0,0)" stroke-width="2.281907226798666" fill="rgb(0,0,0)" stroke-linecap="butt" stroke-miterlimit="10.0"><path d="M 559.1716,133.1361 c 0.0000,-3.2680 -2.6492,-5.9172 -5.9172 -5.9172c -3.2680,-0.0000 -5.9172,2.6492 -5.9172 5.9172c -0.0000,3.2680 2.6492,5.9172 5.9172 5.9172c 3.2680,0.0000 5.9172,-2.6492 5.9172 -5.9172Z"/></g><defs></defs><g stroke-linejoin="miter" stroke-opacity="1.0" fill-opacity="0.0" stroke="rgb(0,0,0)" stroke-width="1.140953613399333" fill="rgb(0,0,0)" stroke-linecap="butt" stroke-miterlimit="10.0"><path d="M 568.0473,103.5503 c 0.0000,-8.1699 -6.6230,-14.7929 -14.7929 -14.7929c -8.1699,-0.0000 -14.7929,6.6230 -14.7929 14.7929c -0.0000,8.1699 6.6230,14.7929 14.7929 14.7929c 8.1699,0.0000 14.7929,-6.6230 14.7929 -14.7929Z"/></g><defs></defs><g stroke-linejoin="miter" stroke-opacity="1.0" fill-opacity="0.0" stroke="rgb(0,0,0)" stroke-width="1.140953613399333" fill="rgb(0,0,0)" stroke-linecap="butt" stroke-miterlimit="10.0"><path d="M 517.7515,207.1006 v -103.5503 "/></g><defs></defs><g stroke-linejoin="miter" stroke-opacity="1.0" fill-opacity="1.0" stroke="rgb(0,0,0)" stroke-width="2.281907226798666" fill="rgb(0,0,0)" stroke-linecap="butt" stroke-miterlimit="10.0"><path d="M 523.6686,103.5503 c 0.0000,-3.2680 -2.6492,-5.9172 -5.9172 -5.9172c -3.2680,-0.0000 -5.9172,2.6492 -5.9172 5.9172c -0.0000,3.2680 2.6492,5.9172 5.9172 5.9172c 3.2680,0.0000 5.9172,-2.6492 5.9172 -5.9172Z"/></g><defs></defs><g stroke-linejoin="miter" stroke-opacity="1.0" fill-opacity="0.0" stroke="rgb(0,0,0)" stroke-width="1.140953613399333" fill="rgb(0,0,0)" stroke-linecap="butt" stroke-miterlimit="10.0"><path d="M 532.5444,192.3077 c 0.0000,-8.1699 -6.6230,-14.7929 -14.7929 -14.7929c -8.1699,-0.0000 -14.7929,6.6230 -14.7929 14.7929c -0.0000,8.1699 6.6230,14.7929 14.7929 14.7929c 8.1699,0.0000 14.7929,-6.6230 14.7929 -14.7929Z"/></g><defs></defs><g stroke-linejoin="miter" stroke-opacity="1.0" fill-opacity="0.0" stroke="rgb(0,0,0)" stroke-width="1.140953613399333" fill="rgb(0,0,0)" stroke-linecap="butt" stroke-miterlimit="10.0"><path d="M 482.2485,207.1006 v -133.1361 "/></g><defs></defs><g stroke-linejoin="miter" stroke-opacity="1.0" fill-opacity="1.0" stroke="rgb(0,0,0)" stroke-width="2.281907226798666" fill="rgb(0,0,0)" stroke-linecap="butt" stroke-miterlimit="10.0"><path d="M 488.1657,73.9645 c 0.0000,-3.2680 -2.6492,-5.9172 -5.9172 -5.9172c -3.2680,-0.0000 -5.9172,2.6492 -5.9172 5.9172c -0.0000,3.2680 2.6492,5.9172 5.9172 5.9172c 3.2680,0.0000 5.9172,-2.6492 5.9172 -5.9172Z"/></g><defs></defs><g stroke-linejoin="miter" stroke-opacity="1.0" fill-opacity="0.0" stroke="rgb(0,0,0)" stroke-width="1.140953613399333" fill="rgb(0,0,0)" stroke-linecap="butt" stroke-miterlimit="10.0"><path d="M 497.0414,192.3077 c 0.0000,-8.1699 -6.6230,-14.7929 -14.7929 -14.7929c -8.1699,-0.0000 -14.7929,6.6230 -14.7929 14.7929c -0.0000,8.1699 6.6230,14.7929 14.7929 14.7929c 8.1699,0.0000 14.7929,-6.6230 14.7929 -14.7929Z"/></g><defs></defs><g stroke-linejoin="miter" stroke-opacity="1.0" fill-opacity="0.0" stroke="rgb(0,0,0)" stroke-width="1.140953613399333" fill="rgb(0,0,0)" stroke-linecap="butt" stroke-miterlimit="10.0"><path d="M 446.7456,221.8935 v -133.1361 "/></g><defs></defs><g stroke-linejoin="miter" stroke-opacity="1.0" fill-opacity="1.0" stroke="rgb(0,0,0)" stroke-width="2.281907226798666" fill="rgb(0,0,0)" stroke-linecap="butt" stroke-miterlimit="10.0"><path d="M 452.6627,221.8935 c 0.0000,-3.2680 -2.6492,-5.9172 -5.9172 -5.9172c -3.2680,-0.0000 -5.9172,2.6492 -5.9172 5.9172c -0.0000,3.2680 2.6492,5.9172 5.9172 5.9172c 3.2680,0.0000 5.9172,-2.6492 5.9172 -5.9172Z"/></g><defs></defs><g stroke-linejoin="miter" stroke-opacity="1.0" fill-opacity="1.0" stroke="rgb(0,0,0)" stroke-width="2.281907226798666" fill="rgb(0,0,0)" stroke-linecap="butt" stroke-miterlimit="10.0"><path d="M 452.6627,133.1361 c 0.0000,-3.2680 -2.6492,-5.9172 -5.9172 -5.9172c -3.2680,-0.0000 -5.9172,2.6492 -5.9172 5.9172c -0.0000,3.2680 2.6492,5.9172 5.9172 5.9172c 3.2680,0.0000 5.9172,-2.6492 5.9172 -5.9172Z"/></g><defs></defs><g stroke-linejoin="miter" stroke-opacity="1.0" fill-opacity="0.0" stroke="rgb(0,0,0)" stroke-width="1.140953613399333" fill="rgb(0,0,0)" stroke-linecap="butt" stroke-miterlimit="10.0"><path d="M 461.5385,103.5503 c 0.0000,-8.1699 -6.6230,-14.7929 -14.7929 -14.7929c -8.1699,-0.0000 -14.7929,6.6230 -14.7929 14.7929c -0.0000,8.1699 6.6230,14.7929 14.7929 14.7929c 8.1699,0.0000 14.7929,-6.6230 14.7929 -14.7929Z"/></g><defs></defs><g stroke-linejoin="miter" stroke-opacity="1.0" fill-opacity="0.0" stroke="rgb(0,0,0)" stroke-width="1.140953613399333" fill="rgb(0,0,0)" stroke-linecap="butt" stroke-miterlimit="10.0"><path d="M 411.2426,147.9290 v -44.3787 "/></g><defs></defs><g stroke-linejoin="miter" stroke-opacity="1.0" fill-opacity="1.0" stroke="rgb(0,0,0)" stroke-width="2.281907226798666" fill="rgb(0,0,0)" stroke-linecap="butt" stroke-miterlimit="10.0"><path d="M 417.1598,103.5503 c 0.0000,-3.2680 -2.6492,-5.9172 -5.9172 -5.9172c -3.2680,-0.0000 -5.9172,2.6492 -5.9172 5.9172c -0.0000,3.2680 2.6492,5.9172 5.9172 5.9172c 3.2680,0.0000 5.9172,-2.6492 5.9172 -5.9172Z"/></g><defs></defs><g stroke-linejoin="miter" stroke-opacity="1.0" fill-opacity="0.0" stroke="rgb(0,0,0)" stroke-width="1.140953613399333" fill="rgb(0,0,0)" stroke-linecap="butt" stroke-miterlimit="10.0"><path d="M 426.0355,133.1361 c 0.0000,-8.1699 -6.6230,-14.7929 -14.7929 -14.7929c -8.1699,-0.0000 -14.7929,6.6230 -14.7929 14.7929c -0.0000,8.1699 6.6230,14.7929 14.7929 14.7929c 8.1699,0.0000 14.7929,-6.6230 14.7929 -14.7929Z"/></g><defs></defs><g stroke-linejoin="miter" stroke-opacity="1.0" fill-opacity="0.0" stroke="rgb(0,0,0)" stroke-width="1.140953613399333" fill="rgb(0,0,0)" stroke-linecap="butt" stroke-miterlimit="10.0"><path d="M 375.7396,236.6864 v -133.1361 "/></g><defs></defs><g stroke-linejoin="miter" stroke-opacity="1.0" fill-opacity="1.0" stroke="rgb(0,0,0)" stroke-width="2.281907226798666" fill="rgb(0,0,0)" stroke-linecap="butt" stroke-miterlimit="10.0"><path d="M 381.6568,103.5503 c 0.0000,-3.2680 -2.6492,-5.9172 -5.9172 -5.9172c -3.2680,-0.0000 -5.9172,2.6492 -5.9172 5.9172c -0.0000,3.2680 2.6492,5.9172 5.9172 5.9172c 3.2680,0.0000 5.9172,-2.6492 5.9172 -5.9172Z"/></g><defs></defs><g stroke-linejoin="miter" stroke-opacity="1.0" fill-opacity="0.0" stroke="rgb(0,0,0)" stroke-width="1.140953613399333" fill="rgb(0,0,0)" stroke-linecap="butt" stroke-miterlimit="10.0"><path d="M 390.5325,221.8935 c 0.0000,-8.1699 -6.6230,-14.7929 -14.7929 -14.7929c -8.1699,-0.0000 -14.7929,6.6230 -14.7929 14.7929c -0.0000,8.1699 6.6230,14.7929 14.7929 14.7929c 8.1699,0.0000 14.7929,-6.6230 14.7929 -14.7929Z"/></g><defs></defs><g stroke-linejoin="miter" stroke-opacity="1.0" fill-opacity="0.0" stroke="rgb(0,0,0)" stroke-width="1.140953613399333" fill="rgb(0,0,0)" stroke-linecap="butt" stroke-miterlimit="10.0"><path d="M 340.2367,251.4793 v -133.1361 "/></g><defs></defs><g stroke-linejoin="miter" stroke-opacity="1.0" fill-opacity="1.0" stroke="rgb(0,0,0)" stroke-width="2.281907226798666" fill="rgb(0,0,0)" stroke-linecap="butt" stroke-miterlimit="10.0"><path d="M 346.1538,251.4793 c 0.0000,-3.2680 -2.6492,-5.9172 -5.9172 -5.9172c -3.2680,-0.0000 -5.9172,2.6492 -5.9172 5.9172c -0.0000,3.2680 2.6492,5.9172 5.9172 5.9172c 3.2680,0.0000 5.9172,-2.6492 5.9172 -5.9172Z"/></g><defs></defs><g stroke-linejoin="miter" stroke-opacity="1.0" fill-opacity="1.0" stroke="rgb(0,0,0)" stroke-width="2.281907226798666" fill="rgb(0,0,0)" stroke-linecap="butt" stroke-miterlimit="10.0"><path d="M 346.1538,162.7219 c 0.0000,-3.2680 -2.6492,-5.9172 -5.9172 -5.9172c -3.2680,-0.0000 -5.9172,2.6492 -5.9172 5.9172c -0.0000,3.2680 2.6492,5.9172 5.9172 5.9172c 3.2680,0.0000 5.9172,-2.6492 5.9172 -5.9172Z"/></g><defs></defs><g stroke-linejoin="miter" stroke-opacity="1.0" fill-opacity="0.0" stroke="rgb(0,0,0)" stroke-width="1.140953613399333" fill="rgb(0,0,0)" stroke-linecap="butt" stroke-miterlimit="10.0"><path d="M 355.0296,133.1361 c 0.0000,-8.1699 -6.6230,-14.7929 -14.7929 -14.7929c -8.1699,-0.0000 -14.7929,6.6230 -14.7929 14.7929c -0.0000,8.1699 6.6230,14.7929 14.7929 14.7929c 8.1699,0.0000 14.7929,-6.6230 14.7929 -14.7929Z"/></g><defs></defs><g stroke-linejoin="miter" stroke-opacity="1.0" fill-opacity="0.0" stroke="rgb(0,0,0)" stroke-width="1.140953613399333" fill="rgb(0,0,0)" stroke-linecap="butt" stroke-miterlimit="10.0"><path d="M 304.7337,177.5148 v -44.3787 "/></g><defs></defs><g stroke-linejoin="miter" stroke-opacity="1.0" fill-opacity="1.0" stroke="rgb(0,0,0)" stroke-width="2.281907226798666" fill="rgb(0,0,0)" stroke-linecap="butt" stroke-miterlimit="10.0"><path d="M 310.6509,133.1361 c 0.0000,-3.2680 -2.6492,-5.9172 -5.9172 -5.9172c -3.2680,-0.0000 -5.9172,2.6492 -5.9172 5.9172c -0.0000,3.2680 2.6492,5.9172 5.9172 5.9172c 3.2680,0.0000 5.9172,-2.6492 5.9172 -5.9172Z"/></g><defs></defs><g stroke-linejoin="miter" stroke-opacity="1.0" fill-opacity="0.0" stroke="rgb(0,0,0)" stroke-width="1.140953613399333" fill="rgb(0,0,0)" stroke-linecap="butt" stroke-miterlimit="10.0"><path d="M 319.5266,162.7219 c 0.0000,-8.1699 -6.6230,-14.7929 -14.7929 -14.7929c -8.1699,-0.0000 -14.7929,6.6230 -14.7929 14.7929c -0.0000,8.1699 6.6230,14.7929 14.7929 14.7929c 8.1699,0.0000 14.7929,-6.6230 14.7929 -14.7929Z"/></g><defs></defs><g stroke-linejoin="miter" stroke-opacity="1.0" fill-opacity="0.0" stroke="rgb(0,0,0)" stroke-width="1.140953613399333" fill="rgb(0,0,0)" stroke-linecap="butt" stroke-miterlimit="10.0"><path d="M 269.2308,266.2722 v -133.1361 "/></g><defs></defs><g stroke-linejoin="miter" stroke-opacity="1.0" fill-opacity="1.0" stroke="rgb(0,0,0)" stroke-width="2.281907226798666" fill="rgb(0,0,0)" stroke-linecap="butt" stroke-miterlimit="10.0"><path d="M 275.1479,133.1361 c 0.0000,-3.2680 -2.6492,-5.9172 -5.9172 -5.9172c -3.2680,-0.0000 -5.9172,2.6492 -5.9172 5.9172c -0.0000,3.2680 2.6492,5.9172 5.9172 5.9172c 3.2680,0.0000 5.9172,-2.6492 5.9172 -5.9172Z"/></g><defs></defs><g stroke-linejoin="miter" stroke-opacity="1.0" fill-opacity="0.0" stroke="rgb(0,0,0)" stroke-width="1.140953613399333" fill="rgb(0,0,0)" stroke-linecap="butt" stroke-miterlimit="10.0"><path d="M 284.0237,251.4793 c 0.0000,-8.1699 -6.6230,-14.7929 -14.7929 -14.7929c -8.1699,-0.0000 -14.7929,6.6230 -14.7929 14.7929c -0.0000,8.1699 6.6230,14.7929 14.7929 14.7929c 8.1699,0.0000 14.7929,-6.6230 14.7929 -14.7929Z"/></g><defs></defs><g stroke-linejoin="miter" stroke-opacity="1.0" fill-opacity="0.0" stroke="rgb(0,0,0)" stroke-width="1.140953613399333" fill="rgb(0,0,0)" stroke-linecap="butt" stroke-miterlimit="10.0"><path d="M 233.7278,281.0651 v -236.6864 "/></g><defs></defs><g stroke-linejoin="miter" stroke-opacity="1.0" fill-opacity="1.0" stroke="rgb(0,0,0)" stroke-width="2.281907226798666" fill="rgb(0,0,0)" stroke-linecap="butt" stroke-miterlimit="10.0"><path d="M 239.6450,281.0651 c 0.0000,-3.2680 -2.6492,-5.9172 -5.9172 -5.9172c -3.2680,-0.0000 -5.9172,2.6492 -5.9172 5.9172c -0.0000,3.2680 2.6492,5.9172 5.9172 5.9172c 3.2680,0.0000 5.9172,-2.6492 5.9172 -5.9172Z"/></g><defs></defs><g stroke-linejoin="miter" stroke-opacity="1.0" fill-opacity="1.0" stroke="rgb(0,0,0)" stroke-width="2.281907226798666" fill="rgb(0,0,0)" stroke-linecap="butt" stroke-miterlimit="10.0"><path d="M 239.6450,44.3787 c 0.0000,-3.2680 -2.6492,-5.9172 -5.9172 -5.9172c -3.2680,-0.0000 -5.9172,2.6492 -5.9172 5.9172c -0.0000,3.2680 2.6492,5.9172 5.9172 5.9172c 3.2680,0.0000 5.9172,-2.6492 5.9172 -5.9172Z"/></g><defs></defs><g stroke-linejoin="miter" stroke-opacity="1.0" fill-opacity="0.0" stroke="rgb(0,0,0)" stroke-width="1.140953613399333" fill="rgb(0,0,0)" stroke-linecap="butt" stroke-miterlimit="10.0"><path d="M 248.5207,162.7219 c 0.0000,-8.1699 -6.6230,-14.7929 -14.7929 -14.7929c -8.1699,-0.0000 -14.7929,6.6230 -14.7929 14.7929c -0.0000,8.1699 6.6230,14.7929 14.7929 14.7929c 8.1699,0.0000 14.7929,-6.6230 14.7929 -14.7929Z"/></g><defs></defs><g stroke-linejoin="miter" stroke-opacity="1.0" fill-opacity="0.0" stroke="rgb(0,0,0)" stroke-width="1.140953613399333" fill="rgb(0,0,0)" stroke-linecap="butt" stroke-miterlimit="10.0"><path d="M 198.2249,162.7219 v -133.1361 "/></g><defs></defs><g stroke-linejoin="miter" stroke-opacity="1.0" fill-opacity="1.0" stroke="rgb(0,0,0)" stroke-width="2.281907226798666" fill="rgb(0,0,0)" stroke-linecap="butt" stroke-miterlimit="10.0"><path d="M 204.1420,162.7219 c 0.0000,-3.2680 -2.6492,-5.9172 -5.9172 -5.9172c -3.2680,-0.0000 -5.9172,2.6492 -5.9172 5.9172c -0.0000,3.2680 2.6492,5.9172 5.9172 5.9172c 3.2680,0.0000 5.9172,-2.6492 5.9172 -5.9172Z"/></g><defs></defs><g stroke-linejoin="miter" stroke-opacity="1.0" fill-opacity="0.0" stroke="rgb(0,0,0)" stroke-width="1.140953613399333" fill="rgb(0,0,0)" stroke-linecap="butt" stroke-miterlimit="10.0"><path d="M 213.0178,44.3787 c 0.0000,-8.1699 -6.6230,-14.7929 -14.7929 -14.7929c -8.1699,-0.0000 -14.7929,6.6230 -14.7929 14.7929c -0.0000,8.1699 6.6230,14.7929 14.7929 14.7929c 8.1699,0.0000 14.7929,-6.6230 14.7929 -14.7929Z"/></g><defs></defs><g stroke-linejoin="miter" stroke-opacity="1.0" fill-opacity="0.0" stroke="rgb(0,0,0)" stroke-width="1.140953613399333" fill="rgb(0,0,0)" stroke-linecap="butt" stroke-miterlimit="10.0"><path d="M 162.7219,295.8580 v -133.1361 "/></g><defs></defs><g stroke-linejoin="miter" stroke-opacity="1.0" fill-opacity="1.0" stroke="rgb(0,0,0)" stroke-width="2.281907226798666" fill="rgb(0,0,0)" stroke-linecap="butt" stroke-miterlimit="10.0"><path d="M 168.6391,162.7219 c 0.0000,-3.2680 -2.6492,-5.9172 -5.9172 -5.9172c -3.2680,-0.0000 -5.9172,2.6492 -5.9172 5.9172c -0.0000,3.2680 2.6492,5.9172 5.9172 5.9172c 3.2680,0.0000 5.9172,-2.6492 5.9172 -5.9172Z"/></g><defs></defs><g stroke-linejoin="miter" stroke-opacity="1.0" fill-opacity="0.0" stroke="rgb(0,0,0)" stroke-width="1.140953613399333" fill="rgb(0,0,0)" stroke-linecap="butt" stroke-miterlimit="10.0"><path d="M 177.5148,281.0651 c 0.0000,-8.1699 -6.6230,-14.7929 -14.7929 -14.7929c -8.1699,-0.0000 -14.7929,6.6230 -14.7929 14.7929c -0.0000,8.1699 6.6230,14.7929 14.7929 14.7929c 8.1699,0.0000 14.7929,-6.6230 14.7929 -14.7929Z"/></g><defs></defs><g stroke-linejoin="miter" stroke-opacity="1.0" fill-opacity="1.0" font-size="14.792899408284025px" stroke="rgb(0,0,0)" stroke-width="2.281907226798666" fill="rgb(0,0,0)" stroke-linecap="butt" stroke-miterlimit="10.0"><text dominant-baseline="middle" transform="matrix(1.0000,0.0000,0.0000,1.0000,88.7574,73.9645)" stroke="none" text-anchor="middle">b[3]</text></g><defs></defs><g stroke-linejoin="miter" stroke-opacity="1.0" fill-opacity="1.0" font-size="14.792899408284025px" stroke="rgb(0,0,0)" stroke-width="2.281907226798666" fill="rgb(0,0,0)" stroke-linecap="butt" stroke-miterlimit="10.0"><text dominant-baseline="middle" transform="matrix(1.0000,0.0000,0.0000,1.0000,88.7574,103.5503)" stroke="none" text-anchor="middle">b[2]</text></g><defs></defs><g stroke-linejoin="miter" stroke-opacity="1.0" fill-opacity="1.0" font-size="14.792899408284025px" stroke="rgb(0,0,0)" stroke-width="2.281907226798666" fill="rgb(0,0,0)" stroke-linecap="butt" stroke-miterlimit="10.0"><text dominant-baseline="middle" transform="matrix(1.0000,0.0000,0.0000,1.0000,88.7574,133.1361)" stroke="none" text-anchor="middle">b[1]</text></g><defs></defs><g stroke-linejoin="miter" stroke-opacity="1.0" fill-opacity="1.0" font-size="14.792899408284025px" stroke="rgb(0,0,0)" stroke-width="2.281907226798666" fill="rgb(0,0,0)" stroke-linecap="butt" stroke-miterlimit="10.0"><text dominant-baseline="middle" transform="matrix(1.0000,0.0000,0.0000,1.0000,88.7574,162.7219)" stroke="none" text-anchor="middle">b[0]</text></g><defs></defs><g stroke-linejoin="miter" stroke-opacity="1.0" fill-opacity="1.0" font-size="14.792899408284025px" stroke="rgb(0,0,0)" stroke-width="2.281907226798666" fill="rgb(0,0,0)" stroke-linecap="butt" stroke-miterlimit="10.0"><text dominant-baseline="middle" transform="matrix(1.0000,0.0000,0.0000,1.0000,88.7574,192.3077)" stroke="none" text-anchor="middle">a[3]</text></g><defs></defs><g stroke-linejoin="miter" stroke-opacity="1.0" fill-opacity="1.0" font-size="14.792899408284025px" stroke="rgb(0,0,0)" stroke-width="2.281907226798666" fill="rgb(0,0,0)" stroke-linecap="butt" stroke-miterlimit="10.0"><text dominant-baseline="middle" transform="matrix(1.0000,0.0000,0.0000,1.0000,88.7574,221.8935)" stroke="none" text-anchor="middle">a[2]</text></g><defs></defs><g stroke-linejoin="miter" stroke-opacity="1.0" fill-opacity="1.0" font-size="14.792899408284025px" stroke="rgb(0,0,0)" stroke-width="2.281907226798666" fill="rgb(0,0,0)" stroke-linecap="butt" stroke-miterlimit="10.0"><text dominant-baseline="middle" transform="matrix(1.0000,0.0000,0.0000,1.0000,88.7574,251.4793)" stroke="none" text-anchor="middle">a[1]</text></g><defs></defs><g stroke-linejoin="miter" stroke-opacity="1.0" fill-opacity="1.0" font-size="14.792899408284025px" stroke="rgb(0,0,0)" stroke-width="2.281907226798666" fill="rgb(0,0,0)" stroke-linecap="butt" stroke-miterlimit="10.0"><text dominant-baseline="middle" transform="matrix(1.0000,0.0000,0.0000,1.0000,88.7574,281.0651)" stroke="none" text-anchor="middle">a[0]</text></g></svg>