<?xml version="1.0" encoding="UTF-8"?>
<!DOCTYPE svg PUBLIC "-//W3C//DTD SVG 1.1//EN"
    "http://www.w3.org/Graphics/SVG/1.1/DTD/svg11.dtd"><svg xmlns="http://www.w3.org/2000/svg" height="283.0189" stroke-opacity="1" viewBox="0 0 1000 283" font-size="1" width="1000.0000" xmlns:xlink="http://www.w3.org/1999/xlink" stroke="rgb(0,0,0)" version="1.1"><defs></defs><defs></defs><g stroke-linejoin="miter" stroke-opacity="1.0" fill-opacity="1.0" font-size="15.723270440251573px" stroke="rgb(0,0,0)" stroke-width="2.127980706395726" fill="rgb(0,0,0)" stroke-linecap="butt" stroke-miterlimit="10.0"><text dominant-baseline="middle" transform="matrix(1.0000,0.0000,0.0000,1.0000,937.1069,47.1698)" stroke="none" text-anchor="middle">b[3]</text></g><defs></defs><g stroke-linejoin="miter" stroke-opacity="1.0" fill-opacity="1.0" font-size="15.723270440251573px" stroke="rgb(0,0,0)" stroke-width="2.127980706395726" fill="rgb(0,0,0)" stroke-linecap="butt" stroke-miterlimit="10.0"><text dominant-baseline="middle" transform="matrix(1.0000,0.0000,0.0000,1.0000,937.1069,78.6164)" stroke="none" text-anchor="middle">b[2]</text></g><defs></defs><g stroke-linejoin="miter" stroke-opacity="1.0" fill-opacity="1.0" font-size="15.723270440251573px" stroke="rgb(0,0,0)" stroke-width="2.127980706395726" fill="rgb(0,0,0)" stroke-linecap="butt" stroke-miterlimit="10.0"><text dominant-baseline="middle" transform="matrix(1.0000,0.0000,0.0000,1.0000,937.1069,110.0629)" stroke="none" text-anchor="middle">b[1]</text></g><defs></defs><g stroke-linejoin="miter" stroke-opacity="1.0" fill-opacity="1.0" font-size="15.723270440251573px" stroke="rgb(0,0,0)" stroke-width="2.127980706395726" fill="rgb(0,0,0)" stroke-linecap="butt" stroke-miterlimit="10.0"><text dominant-baseline="middle" transform="matrix(1.0000,0.0000,0.0000,1.0000,937.1069,141.5094)" stroke="none" text-anchor="middle">b[0]</text></g><defs></defs><g stroke-linejoin="miter" stroke-opacity="1.0" fill-opacity="1.0" font-size="15.723270440251573px" stroke="rgb(0,0,0)" stroke-width="2.127980706395726" fill="rgb(0,0,0)" stroke-linecap="butt" stroke-miterlimit="10.0"><text dominant-baseline="middle" transform="matrix(1.0000,0.0000,0.0000,1.0000,937.1069,172.9560)" stroke="none" text-anchor="middle">a[3]</text></g><defs></defs><g stroke-linejoin="miter" stroke-opacity="1.0" fill-opacity="1.0" font-size="15.723270440251573px" stroke="rgb(0,0,0)" stroke-width="2.127980706395726" fill="rgb(0,0,0)" stroke-linecap="butt" stroke-miterlimit="10.0"><text dominant-baseline="middle" transform="matrix(1.0000,0.0000,0.0000,1.0000,937.1069,204.4025)" stroke="none" text-anchor="middle">a[2]</text></g><defs></defs><g stroke-linejoin="miter" stroke-opacity="1.0" fill-opacity="1.0" font-size="15.723270440251573px" stroke="rgb(0,0,0)" stroke-width="2.127980706395726" fill="rgb(0,0,0)" stroke-linecap="butt" stroke-miterlimit="10.0"><text dominant-baseline="middle" transform="matrix(1.0000,0.0000,0.0000,1.0000,937.1069,235.8491)" stroke="none" text-anchor="middle">a[1]</text></g><defs></defs><g stroke-linejoin="miter" stroke-opacity="1.0" fill-opacity="1.0" font-size="15.723270440251573px" stroke="rgb(0,0,0)" stroke-width="2.127980706395726" fill="rgb(0,0,0)" stroke-linecap="butt" stroke-miterlimit="10.0"><text dominant-baseline="middle" transform="matrix(1.0000,0.0000,0.0000,1.0000,937.1069,267.2956)" stroke="none" text-anchor="middle">a[0]</text></g><defs></defs><g stroke-linejoin="miter" stroke-opacity="1.0" fill-opacity="0.0" stroke="rgb(128,128,128)" stroke-width="1.063990353197863" fill="rgb(0,0,0)" stroke-linecap="butt" stroke-miterlimit="10.0"><path d="M 125.7862,15.7233 h 748.4277 "/></g><defs></defs><g stroke-linejoin="miter" stroke-opacity="1.0" fill-opacity="0.0" stroke="rgb(128,128,128)" stroke-width="1.063990353197863" fill="rgb(0,0,0)" stroke-linecap="butt" stroke-miterlimit="10.0"><path d="M 125.7862,47.1698 h 748.4277 "/></g><defs></defs><g stroke-linejoin="miter" stroke-opacity="1.0" fill-opacity="0.0" stroke="rgb(128,128,128)" stroke-width="1.063990353197863" fill="rgb(0,0,0)" stroke-linecap="butt" stroke-miterlimit="10.0"><path d="M 125.7862,78.6164 h 748.4277 "/></g><defs></defs><g stroke-linejoin="miter" stroke-opacity="1.0" fill-opacity="0.0" stroke="rgb(128,128,128)" stroke-width="1.063990353197863" fill="rgb(0,0,0)" stroke-linecap="butt" stroke-miterlimit="10.0"><path d="M 125.7862,110.0629 h 748.4277 "/></g><defs></defs><g stroke-linejoin="miter" stroke-opacity="1.0" fill-opacity="0.0" stroke="rgb(128,128,128)" stroke-width="1.063990353197863" fill="rgb(0,0,0)" stroke-linecap="butt" stroke-miterlimit="10.0"><path d="M 125.7862,141.5094 h 748.4277 "/></g><defs></defs><g stroke-linejoin="miter" stroke-opacity="1.0" fill-opacity="0.0" stroke="rgb(128,128,128)" stroke-width="1.063990353197863" fill="rgb(0,0,0)" stroke-linecap="butt" stroke-miterlimit="10.0"><path d="M 125.7862,172.9560 h 748.4277 "/></g><defs></defs><g stroke-linejoin="miter" stroke-opacity="1.0" fill-opacity="0.0" stroke="rgb(128,128,128)" stroke-width="1.063990353197863" fill="rgb(0,0,0)" stroke-linecap="butt" stroke-miterlimit="10.0"><path d="M 125.7862,204.4025 h 748.4277 "/></g><defs></defs><g stroke-linejoin="miter" stroke-opacity="1.0" fill-opacity="0.0" stroke="rgb(128,128,128)" stroke-width="1.063990353197863" fill="rgb(0,0,0)" stroke-linecap="butt" stroke-miterlimit="10.0"><path d="M 125.7862,235.8491 h 748.4277 "/></g><defs></defs><g stroke-linejoin="miter" stroke-opacity="1.0" fill-opacity="0.0" stroke="rgb(128,128,128)" stroke-width="1.063990353197863" fill="rgb(0,0,0)" stroke-linecap="butt" stroke-miterlimit="10.0"><path d="M 125.7862,267.2956 h 748.4277 "/></g><defs></defs><g stroke-linejoin="miter" stroke-opacity="1.0" fill-opacity="0.0" stroke="rgb(0,0,0)" stroke-width="1.063990353197863" fill="rgb(0,0,0)" stroke-linecap="butt" stroke-miterlimit="10.0"><path d="M 858.4906,283.0189 v -267.2956 "/></g><defs></defs><g stroke-linejoin="miter" stroke-opacity="1.0" fill-opacity="1.0" stroke="rgb(0,0,0)" stroke-width="2.127980706395726" fill="rgb(0,0,0)" stroke-linecap="butt" stroke-miterlimit="10.0"><path d="M 864.7799,15.7233 c 0.0000,-3.4735 -2.8158,-6.2893 -6.2893 -6.2893c -3.4735,-0.0000 -6.2893,2.8158 -6.2893 6.2893c -0.0000,3.4735 2.8158,6.2893 6.2893 6.2893c 3.4735,0.0000 6.2893,-2.8158 6.2893 -6.2893Z"/></g><defs></defs><g stroke-linejoin="miter" stroke-opacity="1.0" fill-opacity="0.0" stroke="rgb(0,0,0)" stroke-width="1.063990353197863" fill="rgb(0,0,0)" stroke-linecap="butt" stroke-miterlimit="10.0"><path d="M 874.2138,267.2956 c 0.0000,-8.6837 -7.0395,-15.7233 -15.7233 -15.7233c -8.6837,-0.0000 -15.7233,7.0395 -15.7233 15.7233c -0.0000,8.6837 7.0395,15.7233 15.7233 15.7233c 8.6837,0.0000 15.7233,-7.0395 15.7233 -15.7233Z"/></g><defs></defs><g stroke-linejoin="miter" stroke-opacity="1.0" fill-opacity="0.0" stroke="rgb(0,0,0)" stroke-width="1.063990353197863" fill="rgb(0,0,0)" stroke-linecap="butt" stroke-miterlimit="10.0"><path d="M 820.7547,141.5094 v -141.5094 "/></g><defs></defs><g stroke-linejoin="miter" stroke-opacity="1.0" fill-opacity="1.0" stroke="rgb(0,0,0)" stroke-width="2.127980706395726" fill="rgb(0,0,0)" stroke-linecap="butt" stroke-miterlimit="10.0"><path d="M 827.0440,141.5094 c 0.0000,-3.4735 -2.8158,-6.2893 -6.2893 -6.2893c -3.4735,-0.0000 -6.2893,2.8158 -6.2893 6.2893c -0.0000,3.4735 2.8158,6.2893 6.2893 6.2893c 3.4735,0.0000 6.2893,-2.8158 6.2893 -6.2893Z"/></g><defs></defs><g stroke-linejoin="miter" stroke-opacity="1.0" fill-opacity="0.0" stroke="rgb(0,0,0)" stroke-width="1.063990353197863" fill="rgb(0,0,0)" stroke-linecap="butt" stroke-miterlimit="10.0"><path d="M 836.4780,15.7233 c 0.0000,-8.6837 -7.0395,-15.7233 -15.7233 -15.7233c -8.6837,-0.0000 -15.7233,7.0395 -15.7233 15.7233c -0.0000,8.6837 7.0395,15.7233 15.7233 15.7233c 8.6837,0.0000 15.7233,-7.0395 15.7233 -15.7233Z"/></g><defs></defs><g stroke-linejoin="miter" stroke-opacity="1.0" fill-opacity="0.0" stroke="rgb(0,0,0)" stroke-width="1.063990353197863" fill="rgb(0,0,0)" stroke-linecap="butt" stroke-miterlimit="10.0"><path d="M 783.0189,267.2956 v -251.5723 "/></g><defs></defs><g stroke-linejoin="miter" stroke-opacity="1.0" fill-opacity="1.0" stroke="rgb(0,0,0)" stroke-width="2.127980706395726" fill="rgb(0,0,0)" stroke-linecap="butt" stroke-miterlimit="10.0"><path d="M 789.3082,267.2956 c 0.0000,-3.4735 -2.8158,-6.2893 -6.2893 -6.2893c -3.4735,-0.0000 -6.2893,2.8158 -6.2893 6.2893c -0.0000,3.4735 2.8158,6.2893 6.2893 6.2893c 3.4735,0.0000 6.2893,-2.8158 6.2893 -6.2893Z"/></g><defs></defs><g stroke-linejoin="miter" stroke-opacity="1.0" fill-opacity="1.0" stroke="rgb(0,0,0)" stroke-width="2.127980706395726" fill="rgb(0,0,0)" stroke-linecap="butt" stroke-miterlimit="10.0"><path d="M 789.3082,15.7233 c 0.0000,-3.4735 -2.8158,-6.2893 -6.2893 -6.2893c -3.4735,-0.0000 -6.2893,2.8158 -6.2893 6.2893c -0.0000,3.4735 2.8158,6.2893 6.2893 6.2893c 3.4735,0.0000 6.2893,-2.8158 6.2893 -6.2893Z"/></g><defs></defs><g stroke-linejoin="miter" stroke-opacity="1.0" fill-opacity="0.0" stroke="rgb(0,0,0)" stroke-width="1.063990353197863" fill="rgb(0,0,0)" stroke-linecap="butt" stroke-miterlimit="10.0"><path d="M 798.7421,141.5094 c 0.0000,-8.6837 -7.0395,-15.7233 -15.7233 -15.7233c -8.6837,-0.0000 -15.7233,7.0395 -15.7233 15.7233c -0.0000,8.6837 7.0395,15.7233 15.7233 15.7233c 8.6837,0.0000 15.7233,-7.0395 15.7233 -15.7233Z"/></g><defs></defs><g stroke-linejoin="miter" stroke-opacity="1.0" fill-opacity="0.0" stroke="rgb(0,0,0)" stroke-width="1.063990353197863" fill="rgb(0,0,0)" stroke-linecap="butt" stroke-miterlimit="10.0"><path d="M 745.2830,251.5723 v -110.0629 "/></g><defs></defs><g stroke-linejoin="miter" stroke-opacity="1.0" fill-opacity="1.0" stroke="rgb(0,0,0)" stroke-width="2.127980706395726" fill="rgb(0,0,0)" stroke-linecap="butt" stroke-miterlimit="10.0"><path d="M 751.5723,141.5094 c 0.0000,-3.4735 -2.8158,-6.2893 -6.2893 -6.2893c -3.4735,-0.0000 -6.2893,2.8158 -6.2893 6.2893c -0.0000,3.4735 2.8158,6.2893 6.2893 6.2893c 3.4735,0.0000 6.2893,-2.8158 6.2893 -6.2893Z"/></g><defs></defs><g stroke-linejoin="miter" stroke-opacity="1.0" fill-opacity="0.0" stroke="rgb(0,0,0)" stroke-width="1.063990353197863" fill="rgb(0,0,0)" stroke-linecap="butt" stroke-miterlimit="10.0"><path d="M 761.0063,235.8491 c 0.0000,-8.6837 -7.0395,-15.7233 -15.7233 -15.7233c -8.6837,-0.0000 -15.7233,7.0395 -15.7233 15.7233c -0.0000,8.6837 7.0395,15.7233 15.7233 15.7233c 8.6837,0.0000 15.7233,-7.0395 15.7233 -15.7233Z"/></g><defs></defs><g stroke-linejoin="miter" stroke-opacity="1.0" fill-opacity="0.0" stroke="rgb(0,0,0)" stroke-width="1.063990353197863" fill="rgb(0,0,0)" stroke-linecap="butt" stroke-miterlimit="10.0"><path d="M 707.5472,157.2327 v -47.1698 "/></g><defs></defs><g stroke-linejoin="miter" stroke-opacity="1.0" fill-opacity="1.0" stroke="rgb(0,0,0)" stroke-width="2.127980706395726" fill="rgb(0,0,0)" stroke-linecap="butt" stroke-miterlimit="10.0"><path d="M 713.8365,110.0629 c 0.0000,-3.4735 -2.8158,-6.2893 -6.2893 -6.2893c -3.4735,-0.0000 -6.2893,2.8158 -6.2893 6.2893c -0.0000,3.4735 2.8158,6.2893 6.2893 6.2893c 3.4735,0.0000 6.2893,-2.8158 6.2893 -6.2893Z"/></g><defs></defs><g stroke-linejoin="miter" stroke-opacity="1.0" fill-opacity="0.0" stroke="rgb(0,0,0)" stroke-width="1.063990353197863" fill="rgb(0,0,0)" stroke-linecap="butt" stroke-miterlimit="10.0"><path d="M 723.2704,141.5094 c 0.0000,-8.6837 -7.0395,-15.7233 -15.7233 -15.7233c -8.6837,-0.0000 -15.7233,7.0395 -15.7233 15.7233c -0.0000,8.6837 7.0395,15.7233 15.7233 15.7233c 8.6837,0.0000 15.7233,-7.0395 15.7233 -15.7233Z"/></g><defs></defs><g stroke-linejoin="miter" stroke-opacity="1.0" fill-opacity="0.0" stroke="rgb(0,0,0)" stroke-width="1.063990353197863" fill="rgb(0,0,0)" stroke-linecap="butt" stroke-miterlimit="10.0"><path d="M 669.8113,235.8491 v -141.5094 "/></g><defs></defs><g stroke-linejoin="miter" stroke-opacity="1.0" fill-opacity="1.0" stroke="rgb(0,0,0)" stroke-width="2.127980706395726" fill="rgb(0,0,0)" stroke-linecap="butt" stroke-miterlimit="10.0"><path d="M 676.1006,235.8491 c 0.0000,-3.4735 -2.8158,-6.2893 -6.2893 -6.2893c -3.4735,-0.0000 -6.2893,2.8158 -6.2893 6.2893c -0.0000,3.4735 2.8158,6.2893 6.2893 6.2893c 3.4735,0.0000 6.2893,-2.8158 6.2893 -6.2893Z"/></g><defs></defs><g stroke-linejoin="miter" stroke-opacity="1.0" fill-opacity="1.0" stroke="rgb(0,0,0)" stroke-width="2.127980706395726" fill="rgb(0,0,0)" stroke-linecap="butt" stroke-miterlimit="10.0"><path d="M 676.1006,141.5094 c 0.0000,-3.4735 -2.8158,-6.2893 -6.2893 -6.2893c -3.4735,-0.0000 -6.2893,2.8158 -6.2893 6.2893c -0.0000,3.4735 2.8158,6.2893 6.2893 6.2893c 3.4735,0.0000 6.2893,-2.8158 6.2893 -6.2893Z"/></g><defs></defs><g stroke-linejoin="miter" stroke-opacity="1.0" fill-opacity="0.0" stroke="rgb(0,0,0)" stroke-width="1.063990353197863" fill="rgb(0,0,0)" stroke-linecap="butt" stroke-miterlimit="10.0"><path d="M 685.5346,110.0629 c 0.0000,-8.6837 -7.0395,-15.7233 -15.7233 -15.7233c -8.6837,-0.0000 -15.7233,7.0395 -15.7233 15.7233c -0.0000,8.6837 7.0395,15.7233 15.7233 15.7233c 8.6837,0.0000 15.7233,-7.0395 15.7233 -15.7233Z"/></g><defs></defs><g stroke-linejoin="miter" stroke-opacity="1.0" fill-opacity="0.0" stroke="rgb(0,0,0)" stroke-width="1.063990353197863" fill="rgb(0,0,0)" stroke-linecap="butt" stroke-miterlimit="10.0"><path d="M 632.0755,220.1258 v -110.0629 "/></g><defs></defs><g stroke-linejoin="miter" stroke-opacity="1.0" fill-opacity="1.0" stroke="rgb(0,0,0)" stroke-width="2.127980706395726" fill="rgb(0,0,0)" stroke-linecap="butt" stroke-miterlimit="10.0"><path d="M 638.3648,110.0629 c 0.0000,-3.4735 -2.8158,-6.2893 -6.2893 -6.2893c -3.4735,-0.0000 -6.2893,2.8158 -6.2893 6.2893c -0.0000,3.4735 2.8158,6.2893 6.2893 6.2893c 3.4735,0.0000 6.2893,-2.8158 6.2893 -6.2893Z"/></g><defs></defs><g stroke-linejoin="miter" stroke-opacity="1.0" fill-opacity="0.0" stroke="rgb(0,0,0)" stroke-width="1.063990353197863" fill="rgb(0,0,0)" stroke-linecap="butt" stroke-miterlimit="10.0"><path d="M 647.7987,204.4025 c 0.0000,-8.6837 -7.0395,-15.7233 -15.7233 -15.7233c -8.6837,-0.0000 -15.7233,7.0395 -15.7233 15.7233c -0.0000,8.6837 7.0395,15.7233 15.7233 15.7233c 8.6837,0.0000 15.7233,-7.0395 15.7233 -15.7233Z"/></g><defs></defs><g stroke-linejoin="miter" stroke-opacity="1.0" fill-opacity="0.0" stroke="rgb(0,0,0)" stroke-width="1.063990353197863" fill="rgb(0,0,0)" stroke-linecap="butt" stroke-miterlimit="10.0"><path d="M 594.3396,125.7862 v -47.1698 "/></g><defs></defs><g stroke-linejoin="miter" stroke-opacity="1.0" fill-opacity="1.0" stroke="rgb(0,0,0)" stroke-width="2.127980706395726" fill="rgb(0,0,0)" stroke-linecap="butt" stroke-miterlimit="10.0"><path d="M 600.6289,78.6164 c 0.0000,-3.4735 -2.8158,-6.2893 -6.2893 -6.2893c -3.4735,-0.0000 -6.2893,2.8158 -6.2893 6.2893c -0.0000,3.4735 2.8158,6.2893 6.2893 6.2893c 3.4735,0.0000 6.2893,-2.8158 6.2893 -6.2893Z"/></g><defs></defs><g stroke-linejoin="miter" stroke-opacity="1.0" fill-opacity="0.0" stroke="rgb(0,0,0)" stroke-width="1.063990353197863" fill="rgb(0,0,0)" stroke-linecap="butt" stroke-miterlimit="10.0"><path d="M 610.0629,110.0629 c 0.0000,-8.6837 -7.0395,-15.7233 -15.7233 -15.7233c -8.6837,-0.0000 -15.7233,7.0395 -15.7233 15.7233c -0.0000,8.6837 7.0395,15.7233 15.7233 15.7233c 8.6837,0.0000 15.7233,-7.0395 15.7233 -15.7233Z"/></g><defs></defs><g stroke-linejoin="miter" stroke-opacity="1.0" fill-opacity="0.0" stroke="rgb(0,0,0)" stroke-width="1.063990353197863" fill="rgb(0,0,0)" stroke-linecap="butt" stroke-miterlimit="10.0"><path d="M 556.6038,204.4025 v -141.5094 "/></g><defs></defs><g stroke-linejoin="miter" stroke-opacity="1.0" fill-opacity="1.0" stroke="rgb(0,0,0)" stroke-width="2.127980706395726" fill="rgb(0,0,0)" stroke-linecap="butt" stroke-miterlimit="10.0"><path d="M 562.8931,204.4025 c 0.0000,-3.4735 -2.8158,-6.2893 -6.2893 -6.2893c -3.4735,-0.0000 -6.2893,2.8158 -6.2893 6.2893c -0.0000,3.4735 2.8158,6.2893 6.2893 6.2893c 3.4735,0.0000 6.2893,-2.8158 6.2893 -6.2893Z"/></g><defs></defs><g stroke-linejoin="miter" stroke-opacity="1.0" fill-opacity="1.0" stroke="rgb(0,0,0)" stroke-width="2.127980706395726" fill="rgb(0,0,0)" stroke-linecap="butt" stroke-miterlimit="10.0"><path d="M 562.8931,110.0629 c 0.0000,-3.4735 -2.8158,-6.2893 -6.2893 -6.2893c -3.4735,-0.0000 -6.2893,2.8158 -6.2893 6.2893c -0.0000,3.4735 2.8158,6.2893 6.2893 6.2893c 3.4735,0.0000 6.2893,-2.8158 6.2893 -6.2893Z"/></g><defs></defs><g stroke-linejoin="miter" stroke-opacity="1.0" fill-opacity="0.0" stroke="rgb(0,0,0)" stroke-width="1.063990353197863" fill="rgb(0,0,0)" stroke-linecap="butt" stroke-miterlimit="10.0"><path d="M 572.3270,78.6164 c 0.0000,-8.6837 -7.0395,-15.7233 -15.7233 -15.7233c -8.6837,-0.0000 -15.7233,7.0395 -15.7233 15.7233c -0.0000,8.6837 7.0395,15.7233 15.7233 15.7233c 8.6837,0.0000 15.7233,-7.0395 15.7233 -15.7233Z"/></g><defs></defs><g stroke-linejoin="miter" stroke-opacity="1.0" fill-opacity="0.0" stroke="rgb(0,0,0)" stroke-width="1.063990353197863" fill="rgb(0,0,0)" stroke-linecap="butt" stroke-miterlimit="10.0"><path d="M 518.8679,188.6792 v -110.0629 "/></g><defs></defs><g stroke-linejoin="miter" stroke-opacity="1.0" fill-opacity="1.0" stroke="rgb(0,0,0)" stroke-width="2.127980706395726" fill="rgb(0,0,0)" stroke-linecap="butt" stroke-miterlimit="10.0"><path d="M 525.1572,78.6164 c 0.0000,-3.4735 -2.8158,-6.2893 -6.2893 -6.2893c -3.4735,-0.0000 -6.2893,2.8158 -6.2893 6.2893c -0.0000,3.4735 2.8158,6.2893 6.2893 6.2893c 3.4735,0.0000 6.2893,-2.8158 6.2893 -6.2893Z"/></g><defs></defs><g stroke-linejoin="miter" stroke-opacity="1.0" fill-opacity="0.0" stroke="rgb(0,0,0)" stroke-width="1.063990353197863" fill="rgb(0,0,0)" stroke-linecap="butt" stroke-miterlimit="10.0"><path d="M 534.5912,172.9560 c 0.0000,-8.6837 -7.0395,-15.7233 -15.7233 -15.7233c -8.6837,-0.0000 -15.7233,7.0395 -15.7233 15.7233c -0.0000,8.6837 7.0395,15.7233 15.7233 15.7233c 8.6837,0.0000 15.7233,-7.0395 15.7233 -15.7233Z"/></g><defs></defs><g stroke-linejoin="miter" stroke-opacity="1.0" fill-opacity="0.0" stroke="rgb(0,0,0)" stroke-width="1.063990353197863" fill="rgb(0,0,0)" stroke-linecap="butt" stroke-miterlimit="10.0"><path d="M 481.1321,188.6792 v -141.5094 "/></g><defs></defs><g stroke-linejoin="miter" stroke-opacity="1.0" fill-opacity="1.0" stroke="rgb(0,0,0)" stroke-width="2.127980706395726" fill="rgb(0,0,0)" stroke-linecap="butt" stroke-miterlimit="10.0"><path d="M 487.4214,47.1698 c 0.0000,-3.4735 -2.8158,-6.2893 -6.2893 -6.2893c -3.4735,-0.0000 -6.2893,2.8158 -6.2893 6.2893c -0.0000,3.4735 2.8158,6.2893 6.2893 6.2893c 3.4735,0.0000 6.2893,-2.8158 6.2893 -6.2893Z"/></g><defs></defs><g stroke-linejoin="miter" stroke-opacity="1.0" fill-opacity="0.0" stroke="rgb(0,0,0)" stroke-width="1.063990353197863" fill="rgb(0,0,0)" stroke-linecap="butt" stroke-miterlimit="10.0"><path d="M 496.8553,172.9560 c 0.0000,-8.6837 -7.0395,-15.7233 -15.7233 -15.7233c -8.6837,-0.0000 -15.7233,7.0395 -15.7233 15.7233c -0.0000,8.6837 7.0395,15.7233 15.7233 15.7233c 8.6837,0.0000 15.7233,-7.0395 15.7233 -15.7233Z"/></g><defs></defs><g stroke-linejoin="miter" stroke-opacity="1.0" fill-opacity="0.0" stroke="rgb(0,0,0)" stroke-width="1.063990353197863" fill="rgb(0,0,0)" stroke-linecap="butt" stroke-miterlimit="10.0"><path d="M 443.3962,204.4025 v -141.5094 "/></g><defs></defs><g stroke-linejoin="miter" stroke-opacity="1.0" fill-opacity="1.0" stroke="rgb(0,0,0)" stroke-width="2.127980706395726" fill="rgb(0,0,0)" stroke-linecap="butt" stroke-miterlimit="10.0"><path d="M 449.6855,204.4025 c 0.0000,-3.4735 -2.8158,-6.2893 -6.2893 -6.2893c -3.4735,-0.0000 -6.2893,2.8158 -6.2893 6.2893c -0.0000,3.4735 2.8158,6.2893 6.2893 6.2893c 3.4735,0.0000 6.2893,-2.8158 6.2893 -6.2893Z"/></g><defs></defs><g stroke-linejoin="miter" stroke-opacity="1.0" fill-opacity="1.0" stroke="rgb(0,0,0)" stroke-width="2.127980706395726" fill="rgb(0,0,0)" stroke-linecap="butt" stroke-miterlimit="10.0"><path d="M 449.6855,110.0629 c 0.0000,-3.4735 -2.8158,-6.2893 -6.2893 -6.2893c -3.4735,-0.0000 -6.2893,2.8158 -6.2893 6.2893c -0.0000,3.4735 2.8158,6.2893 6.2893 6.2893c 3.4735,0.0000 6.2893,-2.8158 6.2893 -6.2893Z"/></g><defs></defs><g stroke-linejoin="miter" stroke-opacity="1.0" fill-opacity="0.0" stroke="rgb(0,0,0)" stroke-width="1.063990353197863" fill="rgb(0,0,0)" stroke-linecap="butt" stroke-miterlimit="10.0"><path d="M 459.1195,78.6164 c 0.0000,-8.6837 -7.0395,-15.7233 -15.7233 -15.7233c -8.6837,-0.0000 -15.7233,7.0395 -15.7233 15.7233c -0.0000,8.6837 7.0395,15.7233 15.7233 15.7233c 8.6837,0.0000 15.7233,-7.0395 15.7233 -15.7233Z"/></g><defs></defs><g stroke-linejoin="miter" stroke-opacity="1.0" fill-opacity="0.0" stroke="rgb(0,0,0)" stroke-width="1.063990353197863" fill="rgb(0,0,0)" stroke-linecap="butt" stroke-miterlimit="10.0"><path d="M 405.6604,125.7862 v -47.1698 "/></g><defs></defs><g stroke-linejoin="miter" stroke-opacity="1.0" fill-opacity="1.0" stroke="rgb(0,0,0)" stroke-width="2.127980706395726" fill="rgb(0,0,0)" stroke-linecap="butt" stroke-miterlimit="10.0"><path d="M 411.9497,78.6164 c 0.0000,-3.4735 -2.8158,-6.2893 -6.2893 -6.2893c -3.4735,-0.0000 -6.2893,2.8158 -6.2893 6.2893c -0.0000,3.4735 2.8158,6.2893 6.2893 6.2893c 3.4735,0.0000 6.2893,-2.8158 6.2893 -6.2893Z"/></g><defs></defs><g stroke-linejoin="miter" stroke-opacity="1.0" fill-opacity="0.0" stroke="rgb(0,0,0)" stroke-width="1.063990353197863" fill="rgb(0,0,0)" stroke-linecap="butt" stroke-miterlimit="10.0"><path d="M 421.3836,110.0629 c 0.0000,-8.6837 -7.0395,-15.7233 -15.7233 -15.7233c -8.6837,-0.0000 -15.7233,7.0395 -15.7233 15.7233c -0.0000,8.6837 7.0395,15.7233 15.7233 15.7233c 8.6837,0.0000 15.7233,-7.0395 15.7233 -15.7233Z"/></g><defs></defs><g stroke-linejoin="miter" stroke-opacity="1.0" fill-opacity="0.0" stroke="rgb(0,0,0)" stroke-width="1.063990353197863" fill="rgb(0,0,0)" stroke-linecap="butt" stroke-miterlimit="10.0"><path d="M 367.9245,220.1258 v -141.5094 "/></g><defs></defs><g stroke-linejoin="miter" stroke-opacity="1.0" fill-opacity="1.0" stroke="rgb(0,0,0)" stroke-width="2.127980706395726" fill="rgb(0,0,0)" stroke-linecap="butt" stroke-miterlimit="10.0"><path d="M 374.2138,78.6164 c 0.0000,-3.4735 -2.8158,-6.2893 -6.2893 -6.2893c -3.4735,-0.0000 -6.2893,2.8158 -6.2893 6.2893c -0.0000,3.4735 2.8158,6.2893 6.2893 6.2893c 3.4735,0.0000 6.2893,-2.8158 6.2893 -6.2893Z"/></g><defs></defs><g stroke-linejoin="miter" stroke-opacity="1.0" fill-opacity="0.0" stroke="rgb(0,0,0)" stroke-width="1.063990353197863" fill="rgb(0,0,0)" stroke-linecap="butt" stroke-miterlimit="10.0"><path d="M 383.6478,204.4025 c 0.0000,-8.6837 -7.0395,-15.7233 -15.7233 -15.7233c -8.6837,-0.0000 -15.7233,7.0395 -15.7233 15.7233c -0.0000,8.6837 7.0395,15.7233 15.7233 15.7233c 8.6837,0.0000 15.7233,-7.0395 15.7233 -15.7233Z"/></g><defs></defs><g stroke-linejoin="miter" stroke-opacity="1.0" fill-opacity="0.0" stroke="rgb(0,0,0)" stroke-width="1.063990353197863" fill="rgb(0,0,0)" stroke-linecap="butt" stroke-miterlimit="10.0"><path d="M 330.1887,235.8491 v -141.5094 "/></g><defs></defs><g stroke-linejoin="miter" stroke-opacity="1.0" fill-opacity="1.0" stroke="rgb(0,0,0)" stroke-width="2.127980706395726" fill="rgb(0,0,0)" stroke-linecap="butt" stroke-miterlimit="10.0"><path d="M 336.4780,235.8491 c 0.0000,-3.4735 -2.8158,-6.2893 -6.2893 -6.2893c -3.4735,-0.0000 -6.2893,2.8158 -6.2893 6.2893c -0.0000,3.4735 2.8158,6.2893 6.2893 6.2893c 3.4735,0.0000 6.2893,-2.8158 6.2893 -6.2893Z"/></g><defs></defs><g stroke-linejoin="miter" stroke-opacity="1.0" fill-opacity="1.0" stroke="rgb(0,0,0)" stroke-width="2.127980706395726" fill="rgb(0,0,0)" stroke-linecap="butt" stroke-miterlimit="10.0"><path d="M 336.4780,141.5094 c 0.0000,-3.4735 -2.8158,-6.2893 -6.2893 -6.2893c -3.4735,-0.0000 -6.2893,2.8158 -6.2893 6.2893c -0.0000,3.4735 2.8158,6.2893 6.2893 6.2893c 3.4735,0.0000 6.2893,-2.8158 6.2893 -6.2893Z"/></g><defs></defs><g stroke-linejoin="miter" stroke-opacity="1.0" fill-opacity="0.0" stroke="rgb(0,0,0)" stroke-width="1.063990353197863" fill="rgb(0,0,0)" stroke-linecap="butt" stroke-miterlimit="10.0"><path d="M 345.9119,110.0629 c 0.0000,-8.6837 -7.0395,-15.7233 -15.7233 -15.7233c -8.6837,-0.0000 -15.7233,7.0395 -15.7233 15.7233c -0.0000,8.6837 7.0395,15.7233 15.7233 15.7233c 8.6837,0.0000 15.7233,-7.0395 15.7233 -15.7233Z"/></g><defs></defs><g stroke-linejoin="miter" stroke-opacity="1.0" fill-opacity="0.0" stroke="rgb(0,0,0)" stroke-width="1.063990353197863" fill="rgb(0,0,0)" stroke-linecap="butt" stroke-miterlimit="10.0"><path d="M 292.4528,157.2327 v -47.1698 "/></g><defs></defs><g stroke-linejoin="miter" stroke-opacity="1.0" fill-opacity="1.0" stroke="rgb(0,0,0)" stroke-width="2.127980706395726" fill="rgb(0,0,0)" stroke-linecap="butt" stroke-miterlimit="10.0"><path d="M 298.7421,110.0629 c 0.0000,-3.4735 -2.8158,-6.2893 -6.2893 -6.2893c -3.4735,-0.0000 -6.2893,2.8158 -6.2893 6.2893c -0.0000,3.4735 2.8158,6.2893 6.2893 6.2893c 3.4735,0.0000 6.2893,-2.8158 6.2893 -6.2893Z"/></g><defs></defs><g stroke-linejoin="miter" stroke-opacity="1.0" fill-opacity="0.0" stroke="rgb(0,0,0)" stroke-width="1.063990353197863" fill="rgb(0,0,0)" stroke-linecap="butt" stroke-miterlimit="10.0"><path d="M 308.1761,141.5094 c 0.0000,-8.6837 -7.0395,-15.7233 -15.7233 -15.7233c -8.6837,-0.0000 -15.7233,7.0395 -15.7233 15.7233c -0.0000,8.6837 7.0395,15.7233 15.7233 15.7233c 8.6837,0.0000 15.7233,-7.0395 15.7233 -15.7233Z"/></g><defs></defs><g stroke-linejoin="miter" stroke-opacity="1.0" fill-opacity="0.0" stroke="rgb(0,0,0)" stroke-width="1.063990353197863" fill="rgb(0,0,0)" stroke-linecap="butt" stroke-miterlimit="10.0"><path d="M 254.7170,251.5723 v -141.5094 "/></g><defs></defs><g stroke-linejoin="miter" stroke-opacity="1.0" fill-opacity="1.0" stroke="rgb(0,0,0)" stroke-width="2.127980706395726" fill="rgb(0,0,0)" stroke-linecap="butt" stroke-miterlimit="10.0"><path d="M 261.0063,110.0629 c 0.0000,-3.4735 -2.8158,-6.2893 -6.2893 -6.2893c -3.4735,-0.0000 -6.2893,2.8158 -6.2893 6.2893c -0.0000,3.4735 2.8158,6.2893 6.2893 6.2893c 3.4735,0.0000 6.2893,-2.8158 6.2893 -6.2893Z"/></g><defs></defs><g stroke-linejoin="miter" stroke-opacity="1.0" fill-opacity="0.0" stroke="rgb(0,0,0)" stroke-width="1.063990353197863" fill="rgb(0,0,0)" stroke-linecap="butt" stroke-miterlimit="10.0"><path d="M 270.4403,235.8491 c 0.0000,-8.6837 -7.0395,-15.7233 -15.7233 -15.7233c -8.6837,-0.0000 -15.7233,7.0395 -15.7233 15.7233c -0.0000,8.6837 7.0395,15.7233 15.7233 15.7233c 8.6837,0.0000 15.7233,-7.0395 15.7233 -15.7233Z"/></g><defs></defs><g stroke-linejoin="miter" stroke-opacity="1.0" fill-opacity="0.0" stroke="rgb(0,0,0)" stroke-width="1.063990353197863" fill="rgb(0,0,0)" stroke-linecap="butt" stroke-miterlimit="10.0"><path d="M 216.9811,267.2956 v -251.5723 "/></g><defs></defs><g stroke-linejoin="miter" stroke-opacity="1.0" fill-opacity="1.0" stroke="rgb(0,0,0)" stroke-width="2.127980706395726" fill="rgb(0,0,0)" stroke-linecap="butt" stroke-miterlimit="10.0"><path d="M 223.2704,267.2956 c 0.0000,-3.4735 -2.8158,-6.2893 -6.2893 -6.2893c -3.4735,-0.0000 -6.2893,2.8158 -6.2893 6.2893c -0.0000,3.4735 2.8158,6.2893 6.2893 6.2893c 3.4735,0.0000 6.2893,-2.8158 6.2893 -6.2893Z"/></g><defs></defs><g stroke-linejoin="miter" stroke-opacity="1.0" fill-opacity="1.0" stroke="rgb(0,0,0)" stroke-width="2.127980706395726" fill="rgb(0,0,0)" stroke-linecap="butt" stroke-miterlimit="10.0"><path d="M 223.2704,15.7233 c 0.0000,-3.4735 -2.8158,-6.2893 -6.2893 -6.2893c -3.4735,-0.0000 -6.2893,2.8158 -6.2893 6.2893c -0.0000,3.4735 2.8158,6.2893 6.2893 6.2893c 3.4735,0.0000 6.2893,-2.8158 6.2893 -6.2893Z"/></g><defs></defs><g stroke-linejoin="miter" stroke-opacity="1.0" fill-opacity="0.0" stroke="rgb(0,0,0)" stroke-width="1.063990353197863" fill="rgb(0,0,0)" stroke-linecap="butt" stroke-miterlimit="10.0"><path d="M 232.7044,141.5094 c 0.0000,-8.6837 -7.0395,-15.7233 -15.7233 -15.7233c -8.6837,-0.0000 -15.7233,7.0395 -15.7233 15.7233c -0.0000,8.6837 7.0395,15.7233 15.7233 15.7233c 8.6837,0.0000 15.7233,-7.0395 15.7233 -15.7233Z"/></g><defs></defs><g stroke-linejoin="miter" stroke-opacity="1.0" fill-opacity="0.0" stroke="rgb(0,0,0)" stroke-width="1.063990353197863" fill="rgb(0,0,0)" stroke-linecap="butt" stroke-miterlimit="10.0"><path d="M 179.2453,141.5094 v -141.5094 "/></g><defs></defs><g stroke-linejoin="miter" stroke-opacity="1.0" fill-opacity="1.0" stroke="rgb(0,0,0)" stroke-width="2.127980706395726" fill="rgb(0,0,0)" stroke-linecap="butt" stroke-miterlimit="10.0"><path d="M 185.5346,141.5094 c 0.0000,-3.4735 -2.8158,-6.2893 -6.2893 -6.2893c -3.4735,-0.0000 -6.2893,2.8158 -6.2893 6.2893c -0.0000,3.4735 2.8158,6.2893 6.2893 6.2893c 3.4735,0.0000 6.2893,-2.8158 6.2893 -6.2893Z"/></g><defs></defs><g stroke-linejoin="miter" stroke-opacity="1.0" fill-opacity="0.0" stroke="rgb(0,0,0)" stroke-width="1.063990353197863" fill="rgb(0,0,0)" stroke-linecap="butt" stroke-miterlimit="10.0"><path d="M 194.9686,15.7233 c 0.0000,-8.6837 -7.0395,-15.7233 -15.7233 -15.7233c -8.6837,-0.0000 -15.7233,7.0395 -15.7233 15.7233c -0.0000,8.6837 7.0395,15.7233 15.7233 15.7233c 8.6837,0.0000 15.7233,-7.0395 15.7233 -15.7233Z"/></g><defs></defs><g stroke-linejoin="miter" stroke-opacity="1.0" fill-opacity="0.0" stroke="rgb(0,0,0)" stroke-width="1.063990353197863" fill="rgb(0,0,0)" stroke-linecap="butt" stroke-miterlimit="10.0"><path d="M 141.5094,283.0189 v -141.5094 "/></g><defs></defs><g stroke-linejoin="miter" stroke-opacity="1.0" fill-opacity="1.0" stroke="rgb(0,0,0)" stroke-width="2.127980706395726" fill="rgb(0,0,0)" stroke-linecap="butt" stroke-miterlimit="10.0"><path d="M 147.7987,141.5094 c 0.0000,-3.4735 -2.8158,-6.2893 -6.2893 -6.2893c -3.4735,-0.0000 -6.2893,2.8158 -6.2893 6.2893c -0.0000,3.4735 2.8158,6.2893 6.2893 6.2893c 3.4735,0.0000 6.2893,-2.8158 6.2893 -6.2893Z"/></g><defs></defs><g stroke-linejoin="miter" stroke-opacity="1.0" fill-opacity="0.0" stroke="rgb(0,0,0)" stroke-width="1.063990353197863" fill="rgb(0,0,0)" stroke-linecap="butt" stroke-miterlimit="10.0"><path d="M 157.2327,267.2956 c 0.0000,-8.6837 -7.0395,-15.7233 -15.7233 -15.7233c -8.6837,-0.0000 -15.7233,7.0395 -15.7233 15.7233c -0.0000,8.6837 7.0395,15.7233 15.7233 15.7233c 8.6837,0.0000 15.7233,-7.0395 15.7233 -15.7233Z"/></g><defs></defs><g stroke-linejoin="miter" stroke-opacity="1.0" fill-opacity="1.0" font-size="15.723270440251573px" stroke="rgb(0,0,0)" stroke-width="2.127980706395726" fill="rgb(0,0,0)" stroke-linecap="butt" stroke-miterlimit="10.0"><text dominant-baseline="middle" transform="matrix(1.0000,0.0000,0.0000,1.0000,62.8931,47.1698)" stroke="none" text-anchor="middle">b[3]</text></g><defs></defs><g stroke-linejoin="miter" stroke-opacity="1.0" fill-opacity="1.0" font-size="15.723270440251573px" stroke="rgb(0,0,0)" stroke-width="2.127980706395726" fill="rgb(0,0,0)" stroke-linecap="butt" stroke-miterlimit="10.0"><text dominant-baseline="middle" transform="matrix(1.0000,0.0000,0.0000,1.0000,62.8931,78.6164)" stroke="none" text-anchor="middle">b[2]</text></g><defs></defs><g stroke-linejoin="miter" stroke-opacity="1.0" fill-opacity="1.0" font-size="15.723270440251573px" stroke="rgb(0,0,0)" stroke-width="2.127980706395726" fill="rgb(0,0,0)" stroke-linecap="butt" stroke-miterlimit="10.0"><text dominant-baseline="middle" transform="matrix(1.0000,0.0000,0.0000,1.0000,62.8931,110.0629)" stroke="none" text-anchor="middle">b[1]</text></g><defs></defs><g stroke-linejoin="miter" stroke-opacity="1.0" fill-opacity="1.0" font-size="15.723270440251573px" stroke="rgb(0,0,0)" stroke-width="2.127980706395726" fill="rgb(0,0,0)" stroke-linecap="butt" stroke-miterlimit="10.0"><text dominant-baseline="middle" transform="matrix(1.0000,0.0000,0.0000,1.0000,62.8931,141.5094)" stroke="none" text-anchor="middle">b[0]</text></g><defs></defs><g stroke-linejoin="miter" stroke-opacity="1.0" fill-opacity="1.0" font-size="15.723270440251573px" stroke="rgb(0,0,0)" stroke-width="2.127980706395726" fill="rgb(0,0,0)" stroke-linecap="butt" stroke-miterlimit="10.0"><text dominant-baseline="middle" transform="matrix(1.0000,0.0000,0.0000,1.0000,62.8931,172.9560)" stroke="none" text-anchor="middle">a[3]</text></g><defs></defs><g stroke-linejoin="miter" stroke-opacity="1.0" fill-opacity="1.0" font-size="15.723270440251573px" stroke="rgb(0,0,0)" stroke-width="2.127980706395726" fill="rgb(0,0,0)" stroke-linecap="butt" stroke-miterlimit="10.0"><text dominant-baseline="middle" transform="matrix(1.0000,0.0000,0.0000,1.0000,62.8931,204.4025)" stroke="none" text-anchor="middle">a[2]</text></g><defs></defs><g stroke-linejoin="miter" stroke-opacity="1.0" fill-opacity="1.0" font-size="15.723270440251573px" stroke="rgb(0,0,0)" stroke-width="2.127980706395726" fill="rgb(0,0,0)" stroke-linecap="butt" stroke-miterlimit="10.0"><text dominant-baseline="middle" transform="matrix(1.0000,0.0000,0.0000,1.0000,62.8931,235.8491)" stroke="none" text-anchor="middle">a[1]</text></g><defs></defs><g stroke-linejoin="miter" stroke-opacity="1.0" fill-opacity="1.0" font-size="15.723270440251573px" stroke="rgb(0,0,0)" stroke-width="2.127980706395726" fill="rgb(0,0,0)" stroke-linecap="butt" stroke-miterlimit="10.0"><text dominant-baseline="middle" transform="matrix(1.0000,0.0000,0.0000,1.0000,62.8931,267.2956)" stroke="none" text-anchor="middle">a[0]</text></g></svg>