<?xml version="1.0" encoding="UTF-8"?>
<!DOCTYPE svg PUBLIC "-//W3C//DTD SVG 1.1//EN"
    "http://www.w3.org/Graphics/SVG/1.1/DTD/svg11.dtd"><svg xmlns="http://www.w3.org/2000/svg" height="570.5882" stroke-opacity="1" viewBox="0 0 1000 571" font-size="1" width="1000.0000" xmlns:xlink="http://www.w3.org/1999/xlink" stroke="rgb(0,0,0)" version="1.1"><defs></defs><defs></defs><g stroke-linejoin="miter" stroke-opacity="1.0" fill-opacity="1.0" font-size="29.41176470588235px" stroke="rgb(0,0,0)" stroke-width="3.0214916456455545" fill="rgb(0,0,0)" stroke-linecap="butt" stroke-miterlimit="10.0"><text dominant-baseline="middle" transform="matrix(1.0000,0.0000,0.0000,1.0000,823.5294,305.8824)" stroke="none" text-anchor="middle">a[3]</text></g><defs></defs><g stroke-linejoin="miter" stroke-opacity="1.0" fill-opacity="1.0" font-size="29.41176470588235px" stroke="rgb(0,0,0)" stroke-width="3.0214916456455545" fill="rgb(0,0,0)" stroke-linecap="butt" stroke-miterlimit="10.0"><text dominant-baseline="middle" transform="matrix(1.0000,0.0000,0.0000,1.0000,823.5294,364.7059)" stroke="none" text-anchor="middle">a[2]</text></g><defs></defs><g stroke-linejoin="miter" stroke-opacity="1.0" fill-opacity="1.0" font-size="29.41176470588235px" stroke="rgb(0,0,0)" stroke-width="3.0214916456455545" fill="rgb(0,0,0)" stroke-linecap="butt" stroke-miterlimit="10.0"><text dominant-baseline="middle" transform="matrix(1.0000,0.0000,0.0000,1.0000,823.5294,423.5294)" stroke="none" text-anchor="middle">a[1]</text></g><defs></defs><g stroke-linejoin="miter" stroke-opacity="1.0" fill-opacity="1.0" font-size="29.41176470588235px" stroke="rgb(0,0,0)" stroke-width="3.0214916456455545" fill="rgb(0,0,0)" stroke-linecap="butt" stroke-miterlimit="10.0"><text dominant-baseline="middle" transform="matrix(1.0000,0.0000,0.0000,1.0000,823.5294,482.3529)" stroke="none" text-anchor="middle">a[0]</text></g><defs></defs><g stroke-linejoin="miter" stroke-opacity="1.0" fill-opacity="0.0" stroke="rgb(128,128,128)" stroke-width="1.5107458228227773" fill="rgb(0,0,0)" stroke-linecap="butt" stroke-miterlimit="10.0"><path d="M 294.1176,70.5882 h 411.7647 "/></g><defs></defs><g stroke-linejoin="miter" stroke-opacity="1.0" fill-opacity="0.0" stroke="rgb(128,128,128)" stroke-width="1.5107458228227773" fill="rgb(0,0,0)" stroke-linecap="butt" stroke-miterlimit="10.0"><path d="M 294.1176,129.4118 h 411.7647 "/></g><defs></defs><g stroke-linejoin="miter" stroke-opacity="1.0" fill-opacity="0.0" stroke="rgb(128,128,128)" stroke-width="1.5107458228227773" fill="rgb(0,0,0)" stroke-linecap="butt" stroke-miterlimit="10.0"><path d="M 294.1176,188.2353 h 411.7647 "/></g><defs></defs><g stroke-linejoin="miter" stroke-opacity="1.0" fill-opacity="0.0" stroke="rgb(128,128,128)" stroke-width="1.5107458228227773" fill="rgb(0,0,0)" stroke-linecap="butt" stroke-miterlimit="10.0"><path d="M 294.1176,247.0588 h 411.7647 "/></g><defs></defs><g stroke-linejoin="miter" stroke-opacity="1.0" fill-opacity="0.0" stroke="rgb(128,128,128)" stroke-width="1.5107458228227773" fill="rgb(0,0,0)" stroke-linecap="butt" stroke-miterlimit="10.0"><path d="M 294.1176,305.8824 h 411.7647 "/></g><defs></defs><g stroke-linejoin="miter" stroke-opacity="1.0" fill-opacity="0.0" stroke="rgb(128,128,128)" stroke-width="1.5107458228227773" fill="rgb(0,0,0)" stroke-linecap="butt" stroke-miterlimit="10.0"><path d="M 294.1176,364.7059 h 411.7647 "/></g><defs></defs><g stroke-linejoin="miter" stroke-opacity="1.0" fill-opacity="0.0" stroke="rgb(128,128,128)" stroke-width="1.5107458228227773" fill="rgb(0,0,0)" stroke-linecap="butt" stroke-miterlimit="10.0"><path d="M 294.1176,423.5294 h 411.7647 "/></g><defs></defs><g stroke-linejoin="miter" stroke-opacity="1.0" fill-opacity="0.0" stroke="rgb(128,128,128)" stroke-width="1.5107458228227773" fill="rgb(0,0,0)" stroke-linecap="butt" stroke-miterlimit="10.0"><path d="M 294.1176,482.3529 h 411.7647 "/></g><defs></defs><g stroke-linejoin="miter" stroke-opacity="1.0" fill-opacity="0.0" stroke="rgb(0,0,0)" stroke-width="1.5107458228227773" fill="rgb(0,0,0)" stroke-linecap="butt" stroke-miterlimit="10.0"><path d="M 676.4706,276.4706 v -58.8235 "/></g><defs></defs><g stroke-linejoin="miter" stroke-opacity="1.0" fill-opacity="0.0" stroke="rgb(0,0,0)" stroke-width="1.5107458228227773" fill="rgb(0,0,0)" stroke-linecap="butt" stroke-miterlimit="10.0"><path d="M 705.8824,247.0588 c 0.0000,-16.2437 -13.1681,-29.4118 -29.4118 -29.4118c -16.2437,-0.0000 -29.4118,13.1681 -29.4118 29.4118c -0.0000,16.2437 13.1681,29.4118 29.4118 29.4118c 16.2437,0.0000 29.4118,-13.1681 29.4118 -29.4118Z"/></g><defs></defs><g stroke-linejoin="miter" stroke-opacity="1.0" fill-opacity="0.0" stroke="rgb(0,0,0)" stroke-width="1.5107458228227773" fill="rgb(0,0,0)" stroke-linecap="butt" stroke-miterlimit="10.0"><path d="M 605.8824,335.2941 v -264.7059 "/></g><defs></defs><g stroke-linejoin="miter" stroke-opacity="1.0" fill-opacity="1.0" stroke="rgb(0,0,0)" stroke-width="3.0214916456455545" fill="rgb(0,0,0)" stroke-linecap="butt" stroke-miterlimit="10.0"><path d="M 617.6471,70.5882 c 0.0000,-6.4975 -5.2672,-11.7647 -11.7647 -11.7647c -6.4975,-0.0000 -11.7647,5.2672 -11.7647 11.7647c -0.0000,6.4975 5.2672,11.7647 11.7647 11.7647c 6.4975,0.0000 11.7647,-5.2672 11.7647 -11.7647Z"/></g><defs></defs><g stroke-linejoin="miter" stroke-opacity="1.0" fill-opacity="0.0" stroke="rgb(0,0,0)" stroke-width="1.5107458228227773" fill="rgb(0,0,0)" stroke-linecap="butt" stroke-miterlimit="10.0"><path d="M 635.2941,305.8824 c 0.0000,-16.2437 -13.1681,-29.4118 -29.4118 -29.4118c -16.2437,-0.0000 -29.4118,13.1681 -29.4118 29.4118c -0.0000,16.2437 13.1681,29.4118 29.4118 29.4118c 16.2437,0.0000 29.4118,-13.1681 29.4118 -29.4118Z"/></g><defs></defs><g stroke-linejoin="miter" stroke-opacity="1.0" fill-opacity="0.0" stroke="rgb(0,0,0)" stroke-width="1.5107458228227773" fill="rgb(0,0,0)" stroke-linecap="butt" stroke-miterlimit="10.0"><path d="M 535.2941,394.1176 v -264.7059 "/></g><defs></defs><g stroke-linejoin="miter" stroke-opacity="1.0" fill-opacity="1.0" stroke="rgb(0,0,0)" stroke-width="3.0214916456455545" fill="rgb(0,0,0)" stroke-linecap="butt" stroke-miterlimit="10.0"><path d="M 547.0588,129.4118 c 0.0000,-6.4975 -5.2672,-11.7647 -11.7647 -11.7647c -6.4975,-0.0000 -11.7647,5.2672 -11.7647 11.7647c -0.0000,6.4975 5.2672,11.7647 11.7647 11.7647c 6.4975,0.0000 11.7647,-5.2672 11.7647 -11.7647Z"/></g><defs></defs><g stroke-linejoin="miter" stroke-opacity="1.0" fill-opacity="0.0" stroke="rgb(0,0,0)" stroke-width="1.5107458228227773" fill="rgb(0,0,0)" stroke-linecap="butt" stroke-miterlimit="10.0"><path d="M 564.7059,364.7059 c 0.0000,-16.2437 -13.1681,-29.4118 -29.4118 -29.4118c -16.2437,-0.0000 -29.4118,13.1681 -29.4118 29.4118c -0.0000,16.2437 13.1681,29.4118 29.4118 29.4118c 16.2437,0.0000 29.4118,-13.1681 29.4118 -29.4118Z"/></g><defs></defs><g stroke-linejoin="miter" stroke-opacity="1.0" fill-opacity="0.0" stroke="rgb(0,0,0)" stroke-width="1.5107458228227773" fill="rgb(0,0,0)" stroke-linecap="butt" stroke-miterlimit="10.0"><path d="M 464.7059,452.9412 v -264.7059 "/></g><defs></defs><g stroke-linejoin="miter" stroke-opacity="1.0" fill-opacity="1.0" stroke="rgb(0,0,0)" stroke-width="3.0214916456455545" fill="rgb(0,0,0)" stroke-linecap="butt" stroke-miterlimit="10.0"><path d="M 476.4706,188.2353 c 0.0000,-6.4975 -5.2672,-11.7647 -11.7647 -11.7647c -6.4975,-0.0000 -11.7647,5.2672 -11.7647 11.7647c -0.0000,6.4975 5.2672,11.7647 11.7647 11.7647c 6.4975,0.0000 11.7647,-5.2672 11.7647 -11.7647Z"/></g><defs></defs><g stroke-linejoin="miter" stroke-opacity="1.0" fill-opacity="0.0" stroke="rgb(0,0,0)" stroke-width="1.5107458228227773" fill="rgb(0,0,0)" stroke-linecap="butt" stroke-miterlimit="10.0"><path d="M 494.1176,423.5294 c 0.0000,-16.2437 -13.1681,-29.4118 -29.4118 -29.4118c -16.2437,-0.0000 -29.4118,13.1681 -29.4118 29.4118c -0.0000,16.2437 13.1681,29.4118 29.4118 29.4118c 16.2437,0.0000 29.4118,-13.1681 29.4118 -29.4118Z"/></g><defs></defs><g stroke-linejoin="miter" stroke-opacity="1.0" fill-opacity="0.0" stroke="rgb(0,0,0)" stroke-width="1.5107458228227773" fill="rgb(0,0,0)" stroke-linecap="butt" stroke-miterlimit="10.0"><path d="M 394.1176,511.7647 v -264.7059 "/></g><defs></defs><g stroke-linejoin="miter" stroke-opacity="1.0" fill-opacity="1.0" stroke="rgb(0,0,0)" stroke-width="3.0214916456455545" fill="rgb(0,0,0)" stroke-linecap="butt" stroke-miterlimit="10.0"><path d="M 405.8824,247.0588 c 0.0000,-6.4975 -5.2672,-11.7647 -11.7647 -11.7647c -6.4975,-0.0000 -11.7647,5.2672 -11.7647 11.7647c -0.0000,6.4975 5.2672,11.7647 11.7647 11.7647c 6.4975,0.0000 11.7647,-5.2672 11.7647 -11.7647Z"/></g><defs></defs><g stroke-linejoin="miter" stroke-opacity="1.0" fill-opacity="0.0" stroke="rgb(0,0,0)" stroke-width="1.5107458228227773" fill="rgb(0,0,0)" stroke-linecap="butt" stroke-miterlimit="10.0"><path d="M 423.5294,482.3529 c 0.0000,-16.2437 -13.1681,-29.4118 -29.4118 -29.4118c -16.2437,-0.0000 -29.4118,13.1681 -29.4118 29.4118c -0.0000,16.2437 13.1681,29.4118 29.4118 29.4118c 16.2437,0.0000 29.4118,-13.1681 29.4118 -29.4118Z"/></g><defs></defs><g stroke-linejoin="miter" stroke-opacity="1.0" fill-opacity="0.0" stroke="rgb(0,0,0)" stroke-width="1.5107458228227773" fill="rgb(0,0,0)" stroke-linecap="butt" stroke-miterlimit="10.0"><path d="M 323.5294,511.7647 v -58.8235 "/></g><defs></defs><g stroke-linejoin="miter" stroke-opacity="1.0" fill-opacity="0.0" stroke="rgb(0,0,0)" stroke-width="1.5107458228227773" fill="rgb(0,0,0)" stroke-linecap="butt" stroke-miterlimit="10.0"><path d="M 352.9412,482.3529 c 0.0000,-16.2437 -13.1681,-29.4118 -29.4118 -29.4118c -16.2437,-0.0000 -29.4118,13.1681 -29.4118 29.4118c -0.0000,16.2437 13.1681,29.4118 29.4118 29.4118c 16.2437,0.0000 29.4118,-13.1681 29.4118 -29.4118Z"/></g><defs></defs><g stroke-linejoin="miter" stroke-opacity="1.0" fill-opacity="0.0" stroke="rgb(0,0,0)" stroke-width="1.5107458228227773" fill="rgb(0,0,0)" stroke-linecap="butt" stroke-miterlimit="10.0"><path d="M 323.5294,394.1176 v -58.8235 "/></g><defs></defs><g stroke-linejoin="miter" stroke-opacity="1.0" fill-opacity="0.0" stroke="rgb(0,0,0)" stroke-width="1.5107458228227773" fill="rgb(0,0,0)" stroke-linecap="butt" stroke-miterlimit="10.0"><path d="M 352.9412,364.7059 c 0.0000,-16.2437 -13.1681,-29.4118 -29.4118 -29.4118c -16.2437,-0.0000 -29.4118,13.1681 -29.4118 29.4118c -0.0000,16.2437 13.1681,29.4118 29.4118 29.4118c 16.2437,0.0000 29.4118,-13.1681 29.4118 -29.4118Z"/></g><defs></defs><g stroke-linejoin="miter" stroke-opacity="1.0" fill-opacity="0.0" stroke="rgb(0,0,0)" stroke-width="1.5107458228227773" fill="rgb(0,0,0)" stroke-linecap="butt" stroke-miterlimit="10.0"><path d="M 323.5294,276.4706 v -58.8235 "/></g><defs></defs><g stroke-linejoin="miter" stroke-opacity="1.0" fill-opacity="0.0" stroke="rgb(0,0,0)" stroke-width="1.5107458228227773" fill="rgb(0,0,0)" stroke-linecap="butt" stroke-miterlimit="10.0"><path d="M 352.9412,247.0588 c 0.0000,-16.2437 -13.1681,-29.4118 -29.4118 -29.4118c -16.2437,-0.0000 -29.4118,13.1681 -29.4118 29.4118c -0.0000,16.2437 13.1681,29.4118 29.4118 29.4118c 16.2437,0.0000 29.4118,-13.1681 29.4118 -29.4118Z"/></g><defs></defs><g stroke-linejoin="miter" stroke-opacity="1.0" fill-opacity="1.0" font-size="29.41176470588235px" stroke="rgb(0,0,0)" stroke-width="3.0214916456455545" fill="rgb(0,0,0)" stroke-linecap="butt" stroke-miterlimit="10.0"><text dominant-baseline="middle" transform="matrix(1.0000,0.0000,0.0000,1.0000,176.4706,305.8824)" stroke="none" text-anchor="middle">a[3]</text></g><defs></defs><g stroke-linejoin="miter" stroke-opacity="1.0" fill-opacity="1.0" font-size="29.41176470588235px" stroke="rgb(0,0,0)" stroke-width="3.0214916456455545" fill="rgb(0,0,0)" stroke-linecap="butt" stroke-miterlimit="10.0"><text dominant-baseline="middle" transform="matrix(1.0000,0.0000,0.0000,1.0000,176.4706,364.7059)" stroke="none" text-anchor="middle">a[2]</text></g><defs></defs><g stroke-linejoin="miter" stroke-opacity="1.0" fill-opacity="1.0" font-size="29.41176470588235px" stroke="rgb(0,0,0)" stroke-width="3.0214916456455545" fill="rgb(0,0,0)" stroke-linecap="butt" stroke-miterlimit="10.0"><text dominant-baseline="middle" transform="matrix(1.0000,0.0000,0.0000,1.0000,176.4706,423.5294)" stroke="none" text-anchor="middle">a[1]</text></g><defs></defs><g stroke-linejoin="miter" stroke-opacity="1.0" fill-opacity="1.0" font-size="29.41176470588235px" stroke="rgb(0,0,0)" stroke-width="3.0214916456455545" fill="rgb(0,0,0)" stroke-linecap="butt" stroke-miterlimit="10.0"><text dominant-baseline="middle" transform="matrix(1.0000,0.0000,0.0000,1.0000,176.4706,482.3529)" stroke="none" text-anchor="middle">a[0]</text></g></svg>